<svg width="48" height="48" viewBox="0 0 48 48" fill="none" xmlns="http://www.w3.org/2000/svg">
<g clip-path="url(#clip0_119_902)">
<path d="M24.2997 46.9459C37.1677 46.9459 47.5993 36.5143 47.5993 23.6462C47.5993 10.7782 37.1677 0.346558 24.2997 0.346558C11.4316 0.346558 1 10.7782 1 23.6462C1 36.5143 11.4316 46.9459 24.2997 46.9459Z" fill="white" stroke="black" stroke-width="0.584929" stroke-miterlimit="10"/>
<mask id="mask0_119_902" style="mask-type:luminance" maskUnits="userSpaceOnUse" x="1" y="0" width="47" height="47">
<path d="M24.2997 46.6535C37.1677 46.6535 47.5993 36.2218 47.5993 23.3538C47.5993 10.4857 37.1677 0.0541077 24.2997 0.0541077C11.4316 0.0541077 1 10.4857 1 23.3538C1 36.2218 11.4316 46.6535 24.2997 46.6535Z" fill="white"/>
</mask>
<g mask="url(#mask0_119_902)">
<path d="M40.1655 22.9123L41.0133 22.961L42.572 24.415L43.3513 25.6616L43.1943 27.8949L42.6748 30.5955L42.5196 32.5167L43.0302 33.4548L59.7909 53.1752L52.0678 56.0123L41.0133 54.1997L34.611 36.9581L29.2586 36.7254L28.979 33.6063L30.3987 33.0254L32.264 32.0964L34.1239 30.3718L35.4733 28.0446L36.893 24.6694L38.5689 24.4836L39.2905 24.0867L40.1655 22.9123Z" fill="#EFEC64"/>
<path d="M9.06982 20.8342L9.25022 17.5978L9.9231 12.848L10.9929 9.75955L13.2496 6.87319L15.0302 5.72586L17.8408 4.30072L21.5227 3.57913L24.1763 3.61882L27.0627 3.97961L29.7939 4.7012L31.9316 6.28509L34.1884 8.85937L34.7819 10.2845L36.0447 13.3314L37.0639 16.9195L35.9797 17.1955C35.9797 17.1955 33.7229 17.2352 32.6947 16.7211L31.6646 16.2052C31.6646 16.2052 30.8727 17.2749 28.2208 16.602L25.569 15.9328C25.569 15.9328 23.7867 17.753 21.3314 16.8816C18.8762 16.0103 17.6549 14.5509 17.6549 14.5509L17.139 13.5605L16.8215 13.142C16.8215 13.142 16.2298 15.3068 16.0314 15.6982C15.8329 16.0897 14.6856 18.9057 14.2093 19.3062C13.7331 19.7067 12.7048 20.5329 12.225 20.5329C11.7451 20.5329 12.2881 21.2851 12.2881 21.2851L9.06982 20.8342Z" fill="#EFEC64"/>
<path d="M5.80728 33.158L7.10012 30.7326L8.29074 27.6027L8.46392 26.5113L9.19994 27.9851L10.1073 28.1024L12.4236 27.8516L13.0045 27.3898L14.491 30.6712L17.6534 33.7127L20.8175 34.3658L23.5037 34.5949L23.197 38.4373L17.6534 55.5395H1L7.10012 42.1421L7.77747 39.5415L6.28012 36.7832L5.80728 33.158Z" fill="#EFEC64"/>
<path d="M9.32041 21.0543C9.25911 21.0539 9.19998 21.0315 9.1539 20.9911C9.10783 20.9506 9.07791 20.8949 9.06965 20.8342C8.91929 19.1325 8.94468 17.4199 9.14542 15.7235C9.31174 14.1875 9.66804 12.6781 10.2062 11.2298C10.8448 9.55572 11.7251 8.16305 12.8237 7.10592C14.3747 5.56179 16.3075 4.45684 18.4251 3.90387C20.8893 3.24542 23.8135 3.19491 27.3764 3.75053C29.3225 4.05406 31.1183 4.97856 32.4961 6.38614C33.6488 7.53527 34.6356 9.03979 35.4239 10.851C36.2506 12.7854 36.8073 14.8244 37.0782 16.9105C37.0839 16.9446 37.0825 16.9795 37.0742 17.013C37.0658 17.0466 37.0507 17.078 37.0297 17.1055C37.0088 17.1329 36.9824 17.1558 36.9522 17.1726C36.9221 17.1895 36.8888 17.2 36.8544 17.2034C36.82 17.2069 36.7853 17.2033 36.7524 17.1928C36.7194 17.1823 36.689 17.1651 36.663 17.1424C36.637 17.1197 36.6159 17.0919 36.601 17.0607C36.5862 17.0295 36.5779 16.9956 36.5767 16.961C36.3076 14.921 35.7614 12.9273 34.9531 11.035C34.1882 9.28152 33.2411 7.83112 32.1335 6.72709C30.8308 5.39703 29.133 4.52377 27.2934 4.2376C23.8009 3.69641 20.9398 3.7379 18.555 4.37471C16.5206 4.9062 14.664 5.96895 13.1755 7.45409C12.0642 8.5672 11.2113 9.91101 10.677 11.3904C10.1571 12.797 9.81055 14.2618 9.64512 15.7524C9.44652 17.4139 9.42174 19.0917 9.57116 20.7584C9.57571 20.7909 9.57375 20.824 9.56539 20.8557C9.55702 20.8874 9.54242 20.9172 9.52244 20.9432C9.50246 20.9692 9.47749 20.991 9.449 21.0073C9.42051 21.0236 9.38906 21.034 9.35649 21.038C9.35555 21.0417 9.3538 21.0451 9.35135 21.0481C9.34891 21.051 9.34584 21.0533 9.34237 21.0549C9.3389 21.0564 9.33512 21.0572 9.33132 21.0571C9.32752 21.057 9.32379 21.056 9.32041 21.0543Z" fill="black"/>
<path d="M10.6611 28.3802C10.1476 28.388 9.64195 28.2538 9.19991 27.9923C8.4224 27.5215 7.86677 26.652 7.5583 25.3982C7.33359 24.4365 7.25334 23.4467 7.32017 22.4613C7.32571 22.2132 7.39089 21.9701 7.51021 21.7525C7.62952 21.5349 7.79947 21.3492 8.00568 21.2112C8.57754 20.8287 9.47412 20.7295 10.6828 20.9117C11.2272 20.9961 11.7646 21.1216 12.2901 21.2869C12.3529 21.308 12.4048 21.3529 12.4346 21.4121C12.4643 21.4712 12.4694 21.5397 12.4489 21.6026C12.4271 21.6653 12.3817 21.7169 12.3224 21.7466C12.2631 21.7762 12.1945 21.7815 12.1314 21.7614C11.6301 21.6025 11.1175 21.4819 10.598 21.4006C9.53726 21.2418 8.73629 21.3176 8.27989 21.6261C8.13736 21.722 8.02056 21.8515 7.93973 22.0031C7.8589 22.1547 7.8165 22.3238 7.81626 22.4956C7.75543 23.4289 7.8314 24.366 8.04176 25.2773C8.31777 26.394 8.79402 27.1643 9.45427 27.5648C10.4573 28.1691 11.8932 27.9057 13.7315 26.7891C13.7595 26.7713 13.7907 26.7594 13.8233 26.7539C13.856 26.7483 13.8894 26.7494 13.9217 26.757C13.9539 26.7645 13.9843 26.7785 14.0111 26.7979C14.0379 26.8174 14.0605 26.842 14.0777 26.8703C14.0949 26.8986 14.1062 26.9301 14.111 26.9629C14.1159 26.9956 14.1142 27.029 14.1059 27.0611C14.0977 27.0932 14.0832 27.1233 14.0632 27.1497C14.0432 27.1761 14.0181 27.1982 13.9895 27.2148C12.7195 27.9815 11.6046 28.3802 10.6611 28.3802Z" fill="black"/>
<path d="M12.7951 20.4878C12.7319 20.4856 12.6719 20.4595 12.6271 20.4149C12.5822 20.3703 12.5559 20.3104 12.5534 20.2472C12.5509 20.1839 12.5724 20.1221 12.6135 20.0741C12.6547 20.0261 12.7124 19.9953 12.7753 19.9881C13.4554 19.9304 14.2329 19.0176 14.9671 17.4156C15.3396 16.5836 15.6566 15.7279 15.916 14.854C15.9248 14.8222 15.9397 14.7925 15.9599 14.7666C15.9802 14.7406 16.0054 14.7189 16.034 14.7026C16.0626 14.6864 16.0942 14.6759 16.1269 14.6719C16.1596 14.6678 16.1927 14.6702 16.2245 14.679C16.2562 14.6878 16.2859 14.7027 16.3119 14.7229C16.3379 14.7432 16.3596 14.7684 16.3759 14.797C16.3921 14.8256 16.4026 14.8572 16.4066 14.8899C16.4107 14.9226 16.4082 14.9557 16.3995 14.9875C16.1372 15.8876 15.8123 16.7683 15.4271 17.6231C14.5883 19.4505 13.7133 20.4138 12.8204 20.4878H12.7951Z" fill="black"/>
<path d="M22.9534 17.2605C22.0457 17.2754 21.1417 17.1432 20.2763 16.869C19.4119 16.5948 18.6303 16.1079 18.0033 15.4529C17.3946 14.8123 16.9832 14.0101 16.8181 13.142C16.8112 13.1082 16.8113 13.0733 16.8185 13.0396C16.8257 13.0058 16.8398 12.9739 16.8598 12.9458C16.8799 12.9178 16.9056 12.8941 16.9352 12.8765C16.9649 12.8588 16.9978 12.8474 17.0321 12.843C17.0663 12.8387 17.1011 12.8414 17.1342 12.8511C17.1673 12.8608 17.1981 12.8773 17.2246 12.8994C17.251 12.9215 17.2727 12.9489 17.2881 12.9798C17.3035 13.0107 17.3124 13.0444 17.3142 13.0789C17.4707 13.8544 17.8463 14.5687 18.3965 15.1372C18.9687 15.7233 19.678 16.1573 20.4603 16.4C21.512 16.7445 22.7874 16.8419 24.2486 16.6868C24.3144 16.6796 24.3804 16.6989 24.432 16.7403C24.4836 16.7818 24.5166 16.842 24.5237 16.9078C24.5309 16.9736 24.5117 17.0395 24.4702 17.0911C24.4288 17.1427 24.3685 17.1757 24.3028 17.1829C23.8301 17.2352 23.3791 17.2605 22.9534 17.2605Z" fill="black"/>
<path d="M30.0537 17.0314C28.5167 17.0314 27.189 16.8113 26.0975 16.3729C25.2264 16.04 24.4494 15.5001 23.8336 14.7999C23.2492 14.1366 22.8849 13.3084 22.7909 12.4294C22.7892 12.3966 22.794 12.3637 22.8051 12.3328C22.8161 12.3018 22.8332 12.2733 22.8554 12.249C22.8775 12.2247 22.9043 12.205 22.9341 12.1911C22.9639 12.1771 22.9961 12.1692 23.029 12.1679H23.0398C23.104 12.1673 23.1659 12.1916 23.2127 12.2356C23.2594 12.2797 23.2873 12.3401 23.2906 12.4042C23.3871 13.1824 23.7181 13.9129 24.2395 14.4986C24.8042 15.1351 25.5166 15.6232 26.314 15.9201C27.3964 16.3477 28.7368 16.5533 30.299 16.5281C30.3616 16.5334 30.4199 16.562 30.4624 16.6083C30.5049 16.6546 30.5285 16.7151 30.5285 16.7779C30.5285 16.8407 30.5049 16.9013 30.4624 16.9475C30.4199 16.9938 30.3616 17.0224 30.299 17.0278C30.216 17.0314 30.133 17.0314 30.0537 17.0314Z" fill="black"/>
<path d="M34.2514 17.2406H34.2298C32.967 17.1432 31.2659 16.6994 30.2917 15.0867C29.9374 14.5061 29.7271 13.8492 29.6784 13.1709C29.6762 13.1044 29.7006 13.0397 29.7461 12.9912C29.7916 12.9426 29.8545 12.9141 29.921 12.912C29.9875 12.9098 30.0521 12.9342 30.1007 12.9797C30.1492 13.0252 30.1777 13.0881 30.1799 13.1546C30.2308 13.7548 30.4211 14.3348 30.7355 14.8486C31.4282 15.9815 32.6134 16.6201 34.2677 16.7445C34.3005 16.7466 34.3325 16.7552 34.362 16.7698C34.3915 16.7844 34.4177 16.8047 34.4392 16.8295C34.4607 16.8544 34.477 16.8833 34.4872 16.9146C34.4974 16.9458 34.5013 16.9788 34.4986 17.0115C34.4949 17.0742 34.4671 17.133 34.421 17.1757C34.375 17.2184 34.3142 17.2417 34.2514 17.2406Z" fill="black"/>
<path d="M37.3183 25.0789C36.4634 25.0503 35.6279 24.8157 34.883 24.3952C34.8516 24.3812 34.8234 24.3609 34.8002 24.3355C34.777 24.3102 34.7592 24.2803 34.748 24.2478C34.7368 24.2153 34.7325 24.1809 34.7351 24.1466C34.7378 24.1124 34.7475 24.079 34.7636 24.0487C34.7797 24.0183 34.8019 23.9916 34.8288 23.9702C34.8557 23.9487 34.8866 23.933 34.9198 23.9241C34.953 23.9151 34.9877 23.9131 35.0217 23.9181C35.0557 23.9231 35.0883 23.9351 35.1175 23.9532C36.1999 24.5251 37.1884 24.7073 38.0273 24.4944C38.3881 24.3985 38.7255 24.2298 39.0186 23.9987C39.3118 23.7676 39.5546 23.4789 39.7321 23.1504C40.2084 22.2678 40.3748 21.2508 40.2047 20.2623C40.0243 19.1925 39.4939 18.3374 38.7128 17.8504C37.7152 17.2298 36.9088 17.0512 36.3496 17.3254C35.6009 17.6862 35.4675 18.7253 35.4638 18.7343C35.4555 18.8003 35.4212 18.8603 35.3686 18.9011C35.316 18.9419 35.2494 18.9601 35.1833 18.9517C35.1173 18.9433 35.0573 18.9091 35.0165 18.8565C34.9758 18.8039 34.9576 18.7372 34.9659 18.6712C34.9659 18.6171 35.1373 17.3471 36.1313 16.8672C36.8619 16.5172 37.8234 16.7048 38.9762 17.421C39.8782 17.9821 40.4915 18.9616 40.6972 20.1739C40.891 21.2787 40.704 22.4165 40.1668 23.4012C39.9573 23.7886 39.6706 24.1289 39.3243 24.4011C38.978 24.6732 38.5795 24.8714 38.1536 24.9833C37.8797 25.0466 37.5995 25.0787 37.3183 25.0789Z" fill="black"/>
<path d="M22.4178 34.7988C20.7657 34.8267 19.1313 34.4554 17.6535 33.7164C16.5043 33.1163 15.494 32.2817 14.6877 31.2666C13.8313 30.2131 13.1962 28.9976 12.8206 27.6929C12.8048 27.6281 12.8154 27.5596 12.8501 27.5026C12.8848 27.4456 12.9407 27.4047 13.0055 27.3889C13.0704 27.3731 13.1388 27.3837 13.1958 27.4184C13.2528 27.4531 13.2937 27.509 13.3095 27.5738C13.677 28.8116 14.2831 29.9656 15.0936 30.9707C15.8552 31.927 16.8098 32.712 17.8952 33.2744C19.3256 33.9868 20.9086 34.3386 22.5062 34.2991C26.2368 34.2738 29.5146 33.37 31.9824 31.6833C34.4178 30.0218 35.9638 27.664 36.4527 24.8787C36.4637 24.8134 36.5002 24.7551 36.5542 24.7167C36.6081 24.6783 36.6751 24.6629 36.7404 24.6739C36.8057 24.6849 36.864 24.7214 36.9024 24.7754C36.9408 24.8294 36.9562 24.8964 36.9452 24.9617C36.4365 27.8859 34.8147 30.3502 32.2548 32.0964C29.695 33.8426 26.327 34.7735 22.4971 34.8024L22.4178 34.7988Z" fill="black"/>
<path d="M23.3089 36.6604C23.2441 36.66 23.1819 36.6347 23.1352 36.5897C23.0885 36.5447 23.0609 36.4835 23.0581 36.4187L23.004 34.6147C23.0021 34.5485 23.0264 34.4842 23.0717 34.4359C23.117 34.3876 23.1796 34.3591 23.2457 34.3568C23.3104 34.3572 23.3724 34.3826 23.4188 34.4276C23.4652 34.4726 23.4924 34.5339 23.4947 34.5985L23.5506 36.4025C23.5516 36.4354 23.546 36.4682 23.5343 36.499C23.5226 36.5298 23.5049 36.558 23.4823 36.5819C23.4597 36.6059 23.4326 36.6251 23.4025 36.6386C23.3724 36.6521 23.34 36.6595 23.3071 36.6604H23.3089Z" fill="black"/>
<path d="M29.0673 36.02C29.0031 36.0201 28.9414 35.9953 28.895 35.951C28.8486 35.9066 28.8212 35.846 28.8184 35.7819L28.7083 33.6532C28.705 33.5867 28.7282 33.5216 28.7728 33.4722C28.8175 33.4228 28.8799 33.3932 28.9464 33.3898C29.013 33.3865 29.0781 33.4097 29.1275 33.4543C29.1769 33.499 29.2065 33.5614 29.2098 33.6279L29.3181 35.7566C29.3198 35.7896 29.315 35.8225 29.3039 35.8536C29.2928 35.8847 29.2758 35.9133 29.2537 35.9377C29.2315 35.9622 29.2048 35.9821 29.175 35.9962C29.1452 36.0103 29.1129 36.0184 29.0799 36.02H29.0673Z" fill="black"/>
<path d="M45.6171 36.978C45.5536 36.9782 45.4923 36.9544 45.4457 36.9112C45.3753 36.8445 43.7085 35.2876 42.6351 33.7326C41.9135 32.7007 42.3338 30.8553 42.7343 29.0675C42.9815 27.9689 43.216 26.928 43.1781 26.1577C43.0825 24.2581 40.2033 22.925 40.1745 22.9106C40.1142 22.8833 40.0672 22.8332 40.0439 22.7713C40.0205 22.7094 40.0227 22.6407 40.05 22.5804C40.0773 22.5201 40.1274 22.4732 40.1893 22.4498C40.2512 22.4265 40.3199 22.4287 40.3801 22.456C40.9401 22.728 41.4704 23.0575 41.9622 23.4391C43.032 24.2762 43.6255 25.2088 43.6706 26.1307C43.7121 26.9713 43.474 28.0411 43.2196 29.1794C42.8444 30.8607 42.4511 32.5979 43.0392 33.453C44.0801 34.9557 45.7632 36.5342 45.7794 36.5504C45.8043 36.5731 45.8243 36.6005 45.8385 36.631C45.8526 36.6615 45.8604 36.6945 45.8616 36.7282C45.8628 36.7618 45.8572 36.7953 45.8453 36.8267C45.8334 36.8581 45.8153 36.8869 45.7921 36.9112C45.769 36.9338 45.7416 36.9513 45.7115 36.9628C45.6814 36.9743 45.6493 36.9794 45.6171 36.978Z" fill="black"/>
<path d="M43.4741 38.3598C43.4072 38.3605 43.3425 38.3353 43.2937 38.2894C42.6002 37.5928 41.9822 36.8249 41.4501 35.9984C40.3154 34.2251 39.9726 32.625 40.4615 31.3712C40.9027 30.2208 40.9027 28.9479 40.4615 27.7975C40.267 27.2431 39.993 26.7199 39.6479 26.2443C39.6132 26.1917 39.5996 26.1281 39.6097 26.066C39.6198 26.0038 39.6529 25.9478 39.7024 25.9089C39.752 25.8701 39.8143 25.8513 39.877 25.8563C39.9398 25.8612 39.9984 25.8896 40.0411 25.9358C40.4161 26.4495 40.7139 27.0154 40.9251 27.6153C41.4079 28.8842 41.4079 30.2863 40.9251 31.5552C39.877 34.2413 43.6022 37.898 43.6311 37.9359C43.6553 37.9592 43.6745 37.9873 43.6877 38.0183C43.7009 38.0493 43.7076 38.0826 43.7076 38.1163C43.7076 38.1499 43.7009 38.1832 43.6877 38.2142C43.6745 38.2452 43.6553 38.2733 43.6311 38.2967C43.5878 38.3355 43.5322 38.3579 43.4741 38.3598Z" fill="black"/>
<path d="M41.126 38.3021C41.0946 38.303 41.0633 38.2975 41.034 38.2858C40.9294 38.2443 38.4561 37.2612 37.7472 35.5799C37.6205 35.291 37.5551 34.9789 37.5551 34.6634C37.5551 34.348 37.6205 34.0359 37.7472 33.747C38.6943 31.4776 37.3286 27.637 37.316 27.5955C37.2935 27.5328 37.2969 27.4638 37.3253 27.4035C37.3537 27.3433 37.4049 27.2968 37.4676 27.2744C37.5302 27.2519 37.5993 27.2552 37.6595 27.2836C37.7197 27.312 37.7662 27.3632 37.7887 27.4259C37.8464 27.5919 39.2318 31.4903 38.2108 33.9346C38.1107 34.162 38.059 34.4078 38.059 34.6562C38.059 34.9047 38.1107 35.1504 38.2108 35.3778C38.8422 36.8607 41.1982 37.7988 41.2234 37.806C41.2778 37.8277 41.3229 37.8676 41.3511 37.919C41.3793 37.9703 41.3887 38.0298 41.3779 38.0874C41.367 38.1449 41.3365 38.1969 41.2915 38.2344C41.2466 38.2719 41.19 38.2926 41.1314 38.293L41.126 38.3021Z" fill="black"/>
<path d="M46.0337 44.4788C45.9958 44.4787 45.9585 44.47 45.9245 44.4534C45.8905 44.4369 45.8606 44.4129 45.8371 44.3832L43.2718 41.1884C43.2509 41.1631 43.2352 41.1339 43.2257 41.1025C43.2163 41.0711 43.2132 41.038 43.2168 41.0054C43.2203 40.9728 43.2303 40.9412 43.2463 40.9125C43.2623 40.8838 43.2838 40.8586 43.3097 40.8384C43.3613 40.7975 43.427 40.7785 43.4924 40.7856C43.5579 40.7927 43.618 40.8253 43.6597 40.8763L46.2267 44.0748C46.2474 44.1001 46.2629 44.1294 46.2722 44.1608C46.2815 44.1922 46.2845 44.2251 46.281 44.2577C46.2775 44.2902 46.2675 44.3218 46.2517 44.3505C46.2359 44.3791 46.2145 44.4044 46.1888 44.4247C46.146 44.4621 46.0905 44.4815 46.0337 44.4788Z" fill="black"/>
<path d="M13.652 41.4464C13.6157 41.4459 13.58 41.4373 13.5474 41.4211C13.5174 41.4073 13.4904 41.3877 13.468 41.3634C13.4456 41.3391 13.4283 41.3106 13.4171 41.2796C13.4058 41.2485 13.4009 41.2155 13.4025 41.1825C13.4041 41.1495 13.4123 41.1172 13.4266 41.0874C13.4428 41.0549 15.0501 37.5317 13.827 35.8558C13.4149 35.3084 13.1604 34.6586 13.091 33.9768C13.0217 33.2951 13.1402 32.6073 13.4338 31.9881C13.4658 31.9303 13.5191 31.8871 13.5823 31.8676C13.6455 31.8481 13.7138 31.8538 13.7729 31.8835C13.831 31.9149 13.8744 31.9678 13.894 32.0308C13.9136 32.0939 13.9077 32.1621 13.8775 32.2208C13.6264 32.7596 13.5272 33.3568 13.5908 33.9479C13.6544 34.539 13.8783 35.1014 14.2383 35.5744C15.6418 37.4812 13.9623 41.1505 13.8902 41.3057C13.8676 41.349 13.8333 41.3852 13.7912 41.4101C13.7491 41.4349 13.7009 41.4475 13.652 41.4464Z" fill="black"/>
<path d="M10.1847 41.8216C10.1607 41.8214 10.1369 41.8171 10.1144 41.809C10.0827 41.7997 10.0533 41.7842 10.0277 41.7634C10.0021 41.7427 9.98086 41.717 9.96526 41.688C9.94965 41.659 9.93996 41.6271 9.93676 41.5943C9.93356 41.5615 9.9369 41.5284 9.9466 41.4969C10.0979 40.9504 10.1892 40.3891 10.219 39.8228C10.2641 38.9767 10.1757 37.7771 9.50823 36.8769C8.88947 36.0489 8.78664 34.9611 9.19073 33.7416C9.38338 33.1822 9.65036 32.6513 9.98448 32.1631C10.0237 32.1093 10.0827 32.0733 10.1485 32.0629C10.2143 32.0526 10.2815 32.0689 10.3354 32.1081C10.3892 32.1473 10.4252 32.2063 10.4355 32.2721C10.4459 32.3379 10.4296 32.4051 10.3904 32.459C10.3687 32.4878 8.65134 34.8907 9.90871 36.5774C10.5112 37.3856 10.7909 38.5221 10.7187 39.8589C10.6889 40.4621 10.5909 41.06 10.4265 41.6412C10.4097 41.6926 10.3775 41.7375 10.3342 41.7698C10.2909 41.8021 10.2387 41.8202 10.1847 41.8216Z" fill="black"/>
<path d="M7.30394 42.1373C7.26122 42.1387 7.21889 42.1287 7.18127 42.1084C7.15246 42.0929 7.12702 42.0719 7.1064 42.0465C7.08579 42.0211 7.07043 41.9919 7.0612 41.9605C7.05197 41.9291 7.04906 41.8962 7.05264 41.8637C7.05622 41.8312 7.06622 41.7997 7.08205 41.7711C7.29348 41.3431 7.43189 40.8827 7.49156 40.4091C7.56646 39.9189 7.5379 39.4185 7.40772 38.94C7.27754 38.4615 7.04862 38.0156 6.73569 37.631C6.2243 36.9853 5.86766 36.2311 5.69316 35.4261C5.51867 34.6212 5.53095 33.787 5.72907 32.9875C5.74725 32.9234 5.79016 32.8691 5.84835 32.8367C5.90654 32.8042 5.97524 32.7962 6.03936 32.8143C6.10347 32.8325 6.15773 32.8754 6.19021 32.9336C6.22269 32.9918 6.23072 33.0605 6.21254 33.1246C6.21254 33.1463 5.58295 35.3706 7.12715 37.3153C7.48138 37.7564 7.74065 38.266 7.88873 38.812C8.0368 39.358 8.07048 39.9288 7.98765 40.4885C7.91744 41.0173 7.76081 41.5311 7.52403 42.0092C7.50212 42.0483 7.47016 42.0807 7.43145 42.1033C7.39275 42.1258 7.34872 42.1375 7.30394 42.1373Z" fill="black"/>
<path d="M6.66299 31.3387C6.6254 31.3385 6.58835 31.3298 6.55461 31.3132C6.52086 31.2967 6.49131 31.2727 6.46816 31.2431C6.44741 31.2176 6.43199 31.1882 6.42282 31.1566C6.41365 31.125 6.41092 31.0919 6.41479 31.0593C6.41866 31.0267 6.42905 30.9951 6.44535 30.9666C6.46164 30.938 6.48351 30.913 6.50965 30.8931C6.80702 30.6112 7.05142 30.2782 7.23124 29.9099C7.56498 29.2767 7.95283 28.1727 7.95283 26.5113C7.95283 26.4447 7.97925 26.381 8.02627 26.3339C8.0733 26.2869 8.13708 26.2605 8.20358 26.2605C8.27009 26.2605 8.33387 26.2869 8.38089 26.3339C8.42792 26.381 8.45434 26.4447 8.45434 26.5113C8.45434 29.9388 6.87947 31.2305 6.81272 31.2846C6.76947 31.3174 6.71724 31.3363 6.66299 31.3387Z" fill="black"/>
<path d="M24.0809 24.3122C23.9159 24.3234 23.7507 24.2926 23.6008 24.2225C23.451 24.1525 23.3213 24.0456 23.224 23.9118C22.9534 23.5239 22.9372 22.8709 23.1699 21.9761C23.2793 21.5739 23.4162 21.1798 23.5794 20.7963C23.5929 20.7664 23.6121 20.7395 23.636 20.717C23.6599 20.6946 23.688 20.677 23.7186 20.6655C23.7493 20.6539 23.782 20.6485 23.8147 20.6496C23.8475 20.6507 23.8797 20.6582 23.9096 20.6718C23.9395 20.6849 23.9666 20.7038 23.9893 20.7275C24.0119 20.7511 24.0296 20.779 24.0413 20.8096C24.0531 20.8401 24.0586 20.8727 24.0577 20.9054C24.0567 20.9381 24.0493 20.9703 24.0358 21.0001C23.6967 21.7596 23.2908 23.1415 23.6299 23.6285C23.6678 23.6791 23.7761 23.8378 24.1567 23.8089C24.1905 23.8049 24.2249 23.8077 24.2575 23.8174C24.2902 23.827 24.3206 23.8432 24.3468 23.865C24.3731 23.8868 24.3946 23.9137 24.41 23.9441C24.4255 23.9744 24.4346 24.0076 24.4368 24.0416C24.4391 24.0756 24.4343 24.1098 24.4229 24.1419C24.4115 24.174 24.3936 24.2034 24.3705 24.2284C24.3473 24.2534 24.3192 24.2734 24.2881 24.2872C24.2569 24.301 24.2233 24.3083 24.1892 24.3086L24.0809 24.3122Z" fill="black"/>
<path d="M23.9688 27.0939C23.6646 27.0939 23.3617 27.0563 23.0668 26.9821C22.3747 26.8124 21.734 26.4776 21.1996 26.0061C21.1751 25.9835 21.1554 25.9562 21.1416 25.9258C21.1278 25.8954 21.1202 25.8625 21.1192 25.8292C21.1183 25.7958 21.124 25.7626 21.1361 25.7315C21.1481 25.7003 21.1663 25.6719 21.1895 25.6479C21.2126 25.6239 21.2404 25.6047 21.2711 25.5916C21.3017 25.5784 21.3347 25.5715 21.3681 25.5713C21.4015 25.5711 21.4346 25.5775 21.4654 25.5902C21.4963 25.6029 21.5243 25.6217 21.5478 25.6453C22.0267 26.0566 22.596 26.349 23.2093 26.4986C24.5244 26.8107 25.7998 26.3399 26.9976 25.1024C27.0447 25.06 27.1061 25.0371 27.1694 25.0382C27.2327 25.0392 27.2932 25.0641 27.3389 25.108C27.3845 25.1518 27.4119 25.2113 27.4156 25.2745C27.4192 25.3377 27.3988 25.3999 27.3584 25.4487C26.5863 26.2407 25.4246 27.0939 23.9688 27.0939Z" fill="black"/>
<path d="M21.7047 21.3212C21.843 21.3209 21.9782 21.2795 22.093 21.2024C22.2079 21.1253 22.2974 21.0158 22.3501 20.8879C22.4028 20.76 22.4164 20.6193 22.3891 20.4836C22.3619 20.348 22.2951 20.2234 22.1972 20.1257C22.0992 20.028 21.9745 19.9615 21.8388 19.9347C21.703 19.9078 21.5624 19.9218 21.4346 19.9748C21.3068 20.0278 21.1976 20.1176 21.1208 20.2326C21.0439 20.3477 21.0029 20.4829 21.0029 20.6213C21.0034 20.8071 21.0776 20.9851 21.2091 21.1163C21.3407 21.2476 21.5189 21.3212 21.7047 21.3212Z" fill="black"/>
<path d="M26.2618 20.8468C26.4002 20.8464 26.5353 20.805 26.6502 20.7279C26.765 20.6508 26.8545 20.5413 26.9072 20.4134C26.9599 20.2855 26.9735 20.1448 26.9463 20.0092C26.9191 19.8735 26.8523 19.749 26.7543 19.6512C26.6563 19.5535 26.5316 19.487 26.3959 19.4602C26.2602 19.4333 26.1195 19.4473 25.9917 19.5003C25.8639 19.5534 25.7547 19.6431 25.6779 19.7581C25.6011 19.8732 25.5601 20.0085 25.5601 20.1468C25.5605 20.3326 25.6347 20.5106 25.7662 20.6419C25.8978 20.7731 26.076 20.8468 26.2618 20.8468Z" fill="black"/>
<path d="M9.12075 44.091C9.07465 44.0915 9.02945 44.0783 8.99086 44.0531C8.93419 44.0184 8.89362 43.9626 8.87806 43.898C8.86251 43.8334 8.87323 43.7653 8.90788 43.7086L9.62947 42.5378C9.666 42.4846 9.72149 42.4475 9.78454 42.4339C9.8476 42.4204 9.91345 42.4315 9.96859 42.4649C10.0237 42.4984 10.064 42.5517 10.0811 42.6139C10.0982 42.676 10.0909 42.7424 10.0606 42.7994L9.33903 43.9702C9.31571 44.007 9.28349 44.0374 9.24535 44.0585C9.2072 44.0796 9.16435 44.0908 9.12075 44.091Z" fill="black"/>
<path d="M14.0813 43.6581C14.0813 43.6581 15.3441 37.723 23.1012 37.723C23.1012 37.723 25.5149 40.6256 29.6424 36.4476C29.6424 36.4476 40.1673 34.6554 43.6348 47.107L44.8169 53.9633L14.2407 53.2541H10.3779L14.0813 43.6581Z" fill="black"/>
</g>
</g>
<defs>
<clipPath id="clip0_119_902">
<rect width="48" height="48" fill="white"/>
</clipPath>
</defs>
</svg>
