<svg width="242" height="247" viewBox="0 0 242 247" fill="none" xmlns="http://www.w3.org/2000/svg">
<path d="M121 240.5C186.998 240.5 240.5 186.998 240.5 121C240.5 55.002 186.998 1.5 121 1.5C55.002 1.5 1.5 55.002 1.5 121C1.5 186.998 55.002 240.5 121 240.5Z" fill="white" stroke="black" stroke-width="3" stroke-miterlimit="10"/>
<mask id="mask0_132_4028" style="mask-type:luminance" maskUnits="userSpaceOnUse" x="1" y="1" width="240" height="240">
<path d="M121 240.5C186.998 240.5 240.5 186.998 240.5 121C240.5 55.002 186.998 1.5 121 1.5C55.002 1.5 1.5 55.002 1.5 121C1.5 186.998 55.002 240.5 121 240.5Z" fill="white"/>
</mask>
<g mask="url(#mask0_132_4028)">
<mask id="mask1_132_4028" style="mask-type:luminance" maskUnits="userSpaceOnUse" x="1" y="1" width="240" height="240">
<path d="M121 240.5C186.998 240.5 240.5 186.998 240.5 121C240.5 55.002 186.998 1.5 121 1.5C55.002 1.5 1.5 55.002 1.5 121C1.5 186.998 55.002 240.5 121 240.5Z" fill="white"/>
</mask>
<g mask="url(#mask1_132_4028)">
<path d="M207.08 126.689L211.78 126.959L220.42 135.019L224.74 141.929L223.87 154.309L220.99 169.279L220.13 179.929L222.96 185.129L215.52 194.329L198.25 211.599L196.29 213.589L176.29 204.549L146.62 203.259L145.07 185.969L152.94 182.749L163.28 177.599L173.59 168.039L181.07 155.139L188.94 136.429L198.23 135.399L202.23 133.199L207.08 126.689Z" fill="#EC6D65" fill-opacity="0.5"/>
<path d="M34.7102 115.17L35.7102 97.2295L39.4402 70.8995L45.3702 53.7795L57.8802 37.7795L67.7502 31.4195L83.3302 23.5195L103.74 19.5195L118.45 19.7395L134.45 21.7395L149.59 25.7395L161.44 34.5195L173.95 48.7895L177.24 56.6895L184.24 73.5795L189.89 93.4695L183.88 94.9995C183.88 94.9995 171.37 95.2195 165.67 92.3695L159.96 89.5095C159.96 89.5095 155.57 95.4395 140.87 91.7095L126.17 87.9995C126.17 87.9995 116.29 98.0895 102.68 93.2595C89.0702 88.4295 82.3002 80.3395 82.3002 80.3395L79.4402 74.8495L77.6802 72.5295C77.6802 72.5295 74.4002 84.5295 73.3002 86.6995C72.2002 88.8695 65.8402 104.48 63.2002 106.7C60.5602 108.92 54.8602 113.5 52.2002 113.5C49.5402 113.5 52.5502 117.67 52.5502 117.67L34.7102 115.17Z" fill="#EC6D65" fill-opacity="0.5"/>
<path d="M15.4602 176.291L23.7902 170.041L30.3902 152.691L31.3502 146.641L35.4302 154.811L40.4602 155.461L53.3002 154.071L56.5202 151.511L64.7602 169.701L82.2902 186.561L99.8302 190.181L114.72 191.451L113.02 212.751L68.2302 228.021L44.9702 212.751L24.8402 192.261L15.4602 176.291Z" fill="#EC6D65" fill-opacity="0.5"/>
<path d="M36.1 116.39C35.7602 116.388 35.4325 116.264 35.1771 116.04C34.9217 115.816 34.7558 115.507 34.71 115.17C33.8765 105.737 34.0173 96.2439 35.13 86.84C36.052 78.3254 38.0271 69.9582 41.01 61.9301C44.55 52.6501 49.43 44.9301 55.52 39.0701C64.1173 30.5104 74.8319 24.3853 86.57 21.3201C100.23 17.6701 116.44 17.3901 136.19 20.4701C146.978 22.1526 156.933 27.2774 164.57 35.0801C170.96 41.4501 176.43 49.7901 180.8 59.8301C185.383 70.5532 188.468 81.8558 189.97 93.4201C190.002 93.609 189.994 93.8023 189.948 93.9882C189.902 94.1741 189.818 94.3485 189.702 94.5007C189.585 94.6529 189.439 94.7796 189.272 94.873C189.105 94.9664 188.92 95.0245 188.729 95.0436C188.539 95.0628 188.346 95.0427 188.164 94.9846C187.981 94.9264 187.813 94.8314 187.669 94.7055C187.524 94.5795 187.407 94.4253 187.325 94.2524C187.243 94.0794 187.197 93.8915 187.19 93.7001C185.699 82.3915 182.671 71.3395 178.19 60.8501C173.95 51.1301 168.7 43.0901 162.56 36.9701C155.339 29.5971 145.928 24.7564 135.73 23.1701C116.37 20.1701 100.51 20.4001 87.29 23.9301C76.0127 26.8763 65.7213 32.7675 57.47 41.0001C51.3099 47.1704 46.5816 54.6195 43.62 62.8201C40.7379 70.6177 38.817 78.7376 37.9 87.0001C36.7991 96.2107 36.6617 105.511 37.49 114.75C37.5153 114.93 37.5044 115.114 37.458 115.289C37.4117 115.465 37.3307 115.63 37.22 115.775C37.1092 115.919 36.9708 116.04 36.8129 116.13C36.6549 116.22 36.4806 116.278 36.3 116.3C36.2949 116.32 36.2851 116.34 36.2716 116.356C36.258 116.372 36.241 116.385 36.2218 116.393C36.2025 116.402 36.1816 116.406 36.1605 116.406C36.1394 116.405 36.1188 116.4 36.1 116.39Z" fill="black"/>
<path d="M43.53 156.999C40.6835 157.043 37.8803 156.299 35.43 154.849C31.12 152.239 28.04 147.419 26.33 140.469C25.0844 135.138 24.6395 129.652 25.01 124.189C25.0407 122.814 25.402 121.466 26.0634 120.26C26.7248 119.054 27.6669 118.025 28.81 117.259C31.98 115.139 36.95 114.589 43.65 115.599C46.6681 116.068 49.6466 116.763 52.56 117.679C52.9079 117.796 53.1957 118.045 53.3606 118.373C53.5255 118.701 53.554 119.081 53.44 119.429C53.3192 119.777 53.0676 120.063 52.7389 120.227C52.4101 120.392 52.0302 120.421 51.68 120.309C48.9012 119.429 46.0598 118.76 43.18 118.309C37.3 117.429 32.86 117.849 30.33 119.559C29.5399 120.091 28.8925 120.809 28.4444 121.649C27.9963 122.49 27.7613 123.427 27.76 124.379C27.4228 129.553 27.8439 134.748 29.01 139.799C30.54 145.989 33.18 150.259 36.84 152.479C42.4 155.829 50.36 154.369 60.55 148.179C60.705 148.081 60.8781 148.015 61.0591 147.984C61.2401 147.954 61.4254 147.96 61.6041 148.002C61.7828 148.044 61.9514 148.121 62.0999 148.229C62.2484 148.336 62.3739 148.473 62.469 148.63C62.5642 148.787 62.627 148.961 62.6539 149.143C62.6808 149.324 62.6712 149.51 62.6256 149.687C62.5801 149.865 62.4995 150.032 62.3887 150.178C62.2778 150.325 62.1389 150.448 61.98 150.539C54.94 154.789 48.76 156.999 43.53 156.999Z" fill="black"/>
<path d="M55.3602 113.25C55.0098 113.238 54.677 113.093 54.4286 112.846C54.1801 112.599 54.0343 112.267 54.0204 111.916C54.0065 111.566 54.1255 111.223 54.3535 110.957C54.5816 110.691 54.9019 110.52 55.2502 110.48C59.0202 110.16 63.3302 105.1 67.4002 96.2201C69.4652 91.6082 71.2224 86.8644 72.6602 82.0201C72.7088 81.8442 72.7916 81.6795 72.9038 81.5355C73.016 81.3915 73.1555 81.2711 73.3143 81.181C73.4731 81.0909 73.6481 81.033 73.8292 81.0106C74.0104 80.9881 74.1942 81.0016 74.3702 81.0501C74.5462 81.0987 74.7109 81.1815 74.8548 81.2937C74.9988 81.406 75.1193 81.5455 75.2094 81.7043C75.2994 81.863 75.3573 82.038 75.3798 82.2192C75.4022 82.4004 75.3888 82.5842 75.3402 82.7601C73.8863 87.7498 72.0852 92.6317 69.9502 97.3701C65.3002 107.5 60.4502 112.84 55.5002 113.25H55.3602Z" fill="black"/>
<path d="M111.67 95.3597C106.639 95.4421 101.627 94.7093 96.83 93.1897C92.0387 91.6699 87.706 88.9706 84.23 85.3397C80.856 81.7887 78.5752 77.3417 77.66 72.5297C77.6217 72.3422 77.6225 72.1489 77.6623 71.9618C77.7022 71.7747 77.7802 71.5978 77.8916 71.4422C78.003 71.2867 78.1452 71.1558 78.3095 71.0577C78.4738 70.9597 78.6566 70.8966 78.8463 70.8725C79.0361 70.8483 79.2289 70.8636 79.4125 70.9173C79.5961 70.9711 79.7666 71.0622 79.9134 71.1849C80.0601 71.3076 80.18 71.4593 80.2655 71.6305C80.3509 71.8016 80.4001 71.9886 80.41 72.1797C81.2777 76.4785 83.36 80.4384 86.41 83.5897C89.5814 86.8386 93.5136 89.2447 97.85 90.5897C103.68 92.4997 110.75 93.0396 118.85 92.1796C119.215 92.1399 119.58 92.2466 119.866 92.4763C120.152 92.7061 120.335 93.04 120.375 93.4047C120.415 93.7693 120.308 94.1349 120.078 94.4209C119.849 94.7069 119.515 94.8899 119.15 94.9296C116.53 95.2197 114.03 95.3597 111.67 95.3597Z" fill="black"/>
<path d="M151.03 94.0909C142.51 94.0909 135.15 92.8709 129.1 90.4409C124.271 88.5954 119.964 85.6027 116.55 81.7209C113.311 78.0441 111.291 73.4533 110.77 68.5809C110.761 68.3988 110.788 68.2167 110.849 68.045C110.91 67.8733 111.005 67.7155 111.128 67.5807C111.251 67.4459 111.399 67.3367 111.564 67.2595C111.729 67.1823 111.908 67.1386 112.09 67.1309H112.15C112.506 67.1279 112.849 67.2625 113.108 67.5066C113.367 67.7507 113.522 68.0854 113.54 68.4409C114.075 72.7548 115.91 76.804 118.8 80.0509C121.931 83.5791 125.88 86.2849 130.3 87.9309C136.3 90.3009 143.73 91.4409 152.39 91.3009C152.737 91.3304 153.06 91.4891 153.296 91.7456C153.532 92.0021 153.662 92.3377 153.662 92.6859C153.662 93.0342 153.532 93.3697 153.296 93.6262C153.06 93.8827 152.737 94.0414 152.39 94.0709C151.93 94.0909 151.47 94.0909 151.03 94.0909Z" fill="black"/>
<path d="M174.3 95.2496H174.18C167.18 94.7096 157.75 92.2496 152.35 83.3096C150.386 80.0914 149.22 76.4501 148.95 72.6896C148.938 72.321 149.073 71.9627 149.325 71.6936C149.578 71.4245 149.927 71.2666 150.295 71.2546C150.664 71.2427 151.022 71.3777 151.291 71.6299C151.56 71.8822 151.718 72.231 151.73 72.5996C152.013 75.9265 153.067 79.1417 154.81 81.9896C158.65 88.2696 165.22 91.8096 174.39 92.4996C174.572 92.511 174.75 92.5585 174.913 92.6394C175.076 92.7203 175.222 92.833 175.341 92.9708C175.46 93.1086 175.551 93.2688 175.607 93.4421C175.664 93.6153 175.685 93.798 175.67 93.9796C175.65 94.3271 175.496 94.6532 175.24 94.8899C174.985 95.1265 174.648 95.2554 174.3 95.2496Z" fill="black"/>
<path d="M191.3 138.699C186.561 138.541 181.93 137.241 177.8 134.909C177.626 134.832 177.47 134.719 177.341 134.579C177.213 134.438 177.114 134.273 177.052 134.093C176.99 133.912 176.966 133.722 176.981 133.532C176.995 133.342 177.049 133.157 177.138 132.988C177.228 132.82 177.351 132.672 177.5 132.553C177.649 132.434 177.82 132.348 178.004 132.298C178.188 132.248 178.38 132.237 178.569 132.265C178.757 132.293 178.938 132.359 179.1 132.459C185.1 135.629 190.58 136.639 195.23 135.459C197.23 134.928 199.1 133.993 200.725 132.712C202.35 131.43 203.696 129.83 204.68 128.009C207.321 123.116 208.243 117.479 207.3 111.999C206.3 106.069 203.36 101.329 199.03 98.6294C193.5 95.1894 189.03 94.1994 185.93 95.7194C181.78 97.7194 181.04 103.479 181.02 103.529C180.974 103.895 180.784 104.228 180.492 104.454C180.2 104.68 179.831 104.781 179.465 104.734C179.099 104.688 178.766 104.498 178.54 104.206C178.314 103.915 178.214 103.545 178.26 103.179C178.26 102.879 179.21 95.8394 184.72 93.1794C188.77 91.2394 194.1 92.2794 200.49 96.2494C205.49 99.3594 208.89 104.789 210.03 111.509C211.104 117.634 210.068 123.941 207.09 129.399C205.929 131.547 204.339 133.434 202.42 134.942C200.5 136.451 198.291 137.549 195.93 138.169C194.412 138.52 192.858 138.698 191.3 138.699Z" fill="black"/>
<path d="M108.7 192.58C99.5421 192.735 90.4822 190.676 82.2901 186.58C75.92 183.254 70.3193 178.627 65.8501 173C61.1023 167.16 57.5821 160.422 55.5001 153.19C55.4125 152.83 55.4714 152.451 55.6636 152.135C55.8558 151.819 56.1657 151.592 56.5251 151.505C56.8844 151.417 57.2638 151.476 57.5798 151.668C57.8958 151.861 58.1225 152.17 58.2101 152.53C60.2475 159.391 63.6072 165.788 68.1001 171.36C72.3215 176.661 77.6133 181.012 83.6301 184.13C91.5595 188.079 100.334 190.029 109.19 189.81C129.87 189.67 148.04 184.66 161.72 175.31C175.22 166.1 183.79 153.03 186.5 137.59C186.561 137.228 186.763 136.905 187.062 136.692C187.362 136.479 187.733 136.394 188.095 136.455C188.457 136.516 188.78 136.718 188.993 137.017C189.206 137.316 189.291 137.688 189.23 138.05C186.41 154.26 177.42 167.92 163.23 177.6C149.04 187.28 130.37 192.44 109.14 192.6L108.7 192.58Z" fill="black"/>
<path d="M113.64 202.901C113.281 202.899 112.936 202.758 112.677 202.509C112.418 202.259 112.265 201.92 112.25 201.561L111.95 191.561C111.939 191.194 112.074 190.837 112.325 190.57C112.576 190.302 112.923 190.144 113.29 190.131C113.648 190.133 113.992 190.274 114.249 190.524C114.506 190.773 114.657 191.113 114.67 191.471L114.98 201.471C114.985 201.653 114.955 201.835 114.89 202.006C114.825 202.177 114.727 202.333 114.601 202.466C114.476 202.598 114.326 202.705 114.159 202.78C113.992 202.855 113.813 202.896 113.63 202.901H113.64Z" fill="black"/>
<path d="M145.56 199.349C145.204 199.35 144.862 199.213 144.605 198.967C144.348 198.721 144.196 198.385 144.18 198.029L143.57 186.229C143.552 185.861 143.68 185.5 143.928 185.226C144.175 184.952 144.521 184.788 144.89 184.769C145.259 184.751 145.62 184.879 145.894 185.127C146.167 185.375 146.332 185.721 146.35 186.089L146.95 197.889C146.96 198.072 146.933 198.255 146.872 198.427C146.81 198.599 146.716 198.758 146.593 198.893C146.47 199.029 146.322 199.139 146.157 199.217C145.992 199.295 145.813 199.34 145.63 199.349H145.56Z" fill="black"/>
<path d="M237.3 204.66C236.948 204.661 236.608 204.529 236.35 204.29C235.96 203.92 226.72 195.29 220.77 186.67C216.77 180.95 219.1 170.72 221.32 160.81C222.69 154.72 223.99 148.95 223.78 144.68C223.25 134.15 207.29 126.76 207.13 126.68C206.796 126.529 206.535 126.251 206.406 125.908C206.277 125.565 206.289 125.184 206.44 124.85C206.591 124.516 206.869 124.255 207.212 124.126C207.555 123.997 207.936 124.009 208.27 124.16C211.374 125.668 214.314 127.494 217.04 129.61C222.97 134.25 226.26 139.42 226.51 144.53C226.74 149.19 225.42 155.12 224.01 161.43C221.93 170.75 219.75 180.38 223.01 185.12C228.78 193.45 238.11 202.2 238.2 202.29C238.338 202.416 238.449 202.568 238.527 202.737C238.605 202.906 238.649 203.089 238.656 203.275C238.662 203.462 238.631 203.647 238.565 203.822C238.499 203.996 238.399 204.155 238.27 204.29C238.142 204.415 237.99 204.512 237.824 204.576C237.657 204.64 237.479 204.668 237.3 204.66Z" fill="black"/>
<path d="M225.42 212.319C225.049 212.323 224.691 212.183 224.42 211.929C220.576 208.068 217.15 203.811 214.2 199.229C207.91 189.399 206.01 180.529 208.72 173.579C211.166 167.202 211.166 160.146 208.72 153.769C207.642 150.696 206.123 147.795 204.21 145.159C204.018 144.868 203.942 144.515 203.999 144.171C204.055 143.826 204.238 143.516 204.513 143.3C204.787 143.085 205.133 142.981 205.48 143.008C205.828 143.036 206.153 143.193 206.39 143.449C208.469 146.297 210.12 149.434 211.29 152.759C213.966 159.793 213.966 167.565 211.29 174.599C205.48 189.489 226.13 209.759 226.29 209.969C226.424 210.099 226.531 210.254 226.604 210.426C226.677 210.598 226.715 210.783 226.715 210.969C226.715 211.156 226.677 211.341 226.604 211.512C226.531 211.684 226.424 211.84 226.29 211.969C226.05 212.185 225.742 212.309 225.42 212.319Z" fill="black"/>
<path d="M212.41 212.001C212.236 212.006 212.062 211.975 211.9 211.911C211.32 211.681 197.61 206.231 193.68 196.911C192.978 195.309 192.615 193.58 192.615 191.831C192.615 190.082 192.978 188.352 193.68 186.751C198.93 174.171 191.36 152.881 191.29 152.651C191.165 152.303 191.184 151.921 191.341 151.587C191.499 151.253 191.783 150.995 192.13 150.871C192.477 150.746 192.86 150.765 193.194 150.922C193.528 151.08 193.785 151.363 193.91 151.711C194.23 152.631 201.91 174.241 196.25 187.791C195.695 189.051 195.409 190.414 195.409 191.791C195.409 193.168 195.695 194.53 196.25 195.791C199.75 204.011 212.81 209.211 212.95 209.251C213.251 209.371 213.502 209.593 213.658 209.877C213.814 210.162 213.866 210.492 213.806 210.811C213.746 211.13 213.577 211.418 213.328 211.626C213.078 211.834 212.765 211.949 212.44 211.951L212.41 212.001Z" fill="black"/>
<path d="M239.61 246.24C239.4 246.239 239.193 246.191 239.005 246.1C238.816 246.008 238.65 245.875 238.52 245.71L224.3 228C224.184 227.86 224.097 227.698 224.045 227.524C223.992 227.35 223.975 227.167 223.995 226.986C224.015 226.805 224.07 226.63 224.159 226.471C224.247 226.312 224.367 226.172 224.51 226.06C224.796 225.834 225.16 225.729 225.523 225.768C225.886 225.807 226.219 225.988 226.45 226.27L240.68 244C240.795 244.141 240.881 244.303 240.932 244.477C240.984 244.651 241.001 244.834 240.981 245.014C240.961 245.195 240.906 245.37 240.819 245.529C240.731 245.688 240.612 245.828 240.47 245.94C240.233 246.148 239.925 246.255 239.61 246.24Z" fill="black"/>
<path d="M60.1102 229.431C59.9088 229.428 59.7105 229.381 59.5302 229.291C59.3637 229.215 59.2141 229.106 59.09 228.971C58.9659 228.837 58.8699 228.679 58.8076 228.506C58.7452 228.334 58.7177 228.151 58.7268 227.968C58.7358 227.785 58.7812 227.606 58.8602 227.441C58.9502 227.261 67.8602 207.731 61.0802 198.441C58.7955 195.406 57.3846 191.804 57.0004 188.025C56.6161 184.246 57.2731 180.434 58.9002 177.001C59.078 176.68 59.373 176.441 59.7235 176.333C60.0739 176.225 60.4526 176.256 60.7802 176.421C61.1021 176.595 61.343 176.888 61.4514 177.238C61.5598 177.587 61.5271 177.965 61.3602 178.291C59.9677 181.278 59.4181 184.588 59.7706 187.865C60.1231 191.141 61.3643 194.259 63.3602 196.881C71.1402 207.451 61.8302 227.791 61.4302 228.651C61.305 228.891 61.115 229.092 60.8817 229.23C60.6484 229.368 60.3811 229.437 60.1102 229.431Z" fill="black"/>
<path d="M40.89 231.511C40.757 231.509 40.6251 231.486 40.5 231.441C40.3247 231.389 40.1614 231.303 40.0195 231.188C39.8776 231.073 39.76 230.931 39.6735 230.77C39.5869 230.609 39.5332 230.432 39.5155 230.251C39.4977 230.069 39.5163 229.885 39.57 229.711C40.4085 226.681 40.9148 223.57 41.08 220.431C41.33 215.741 40.84 209.091 37.14 204.101C33.71 199.511 33.14 193.481 35.38 186.721C36.4479 183.62 37.9279 180.677 39.78 177.971C39.9975 177.672 40.3246 177.472 40.6893 177.415C41.0541 177.358 41.4266 177.448 41.725 177.666C42.0234 177.883 42.2231 178.21 42.2803 178.575C42.3375 178.94 42.2475 179.312 42.03 179.611C41.91 179.771 32.39 193.091 39.36 202.441C42.7 206.921 44.25 213.221 43.85 220.631C43.6849 223.975 43.1415 227.289 42.23 230.511C42.1372 230.795 41.9586 231.044 41.7187 231.223C41.4787 231.402 41.1893 231.503 40.89 231.511Z" fill="black"/>
<path d="M24.9201 233.26C24.6833 233.268 24.4486 233.213 24.2401 233.1C24.0804 233.014 23.9393 232.898 23.8251 232.757C23.7108 232.616 23.6256 232.454 23.5745 232.28C23.5233 232.106 23.5072 231.924 23.527 231.744C23.5469 231.563 23.6023 231.389 23.6901 231.23C24.8621 228.858 25.6293 226.306 25.9601 223.68C26.3753 220.963 26.217 218.189 25.4954 215.537C24.7737 212.884 23.5047 210.412 21.7701 208.28C18.9353 204.701 16.9583 200.52 15.991 196.058C15.0237 191.596 15.0918 186.972 16.1901 182.54C16.2909 182.185 16.5287 181.884 16.8513 181.704C17.1738 181.524 17.5547 181.479 17.9101 181.58C18.2655 181.681 18.5663 181.919 18.7463 182.241C18.9264 182.564 18.9709 182.945 18.8701 183.3C18.8701 183.42 15.3801 195.75 23.9401 206.53C25.9037 208.976 27.3409 211.8 28.1617 214.827C28.9826 217.854 29.1692 221.018 28.7101 224.12C28.3209 227.052 27.4527 229.9 26.1401 232.55C26.0187 232.767 25.8415 232.947 25.6269 233.072C25.4124 233.196 25.1683 233.262 24.9201 233.26Z" fill="black"/>
<path d="M21.3701 173.4C21.1618 173.399 20.9564 173.351 20.7694 173.259C20.5823 173.167 20.4185 173.034 20.2902 172.87C20.1751 172.729 20.0896 172.566 20.0388 172.391C19.988 172.216 19.9729 172.032 19.9943 171.851C20.0158 171.67 20.0734 171.496 20.1637 171.337C20.254 171.179 20.3753 171.04 20.5202 170.93C22.1686 169.367 23.5233 167.521 24.5202 165.48C26.3702 161.97 28.5202 155.85 28.5202 146.64C28.5202 146.271 28.6666 145.918 28.9273 145.657C29.1879 145.396 29.5415 145.25 29.9101 145.25C30.2788 145.25 30.6324 145.396 30.893 145.657C31.1537 145.918 31.3001 146.271 31.3001 146.64C31.3001 165.64 22.5702 172.8 22.2002 173.1C21.9604 173.282 21.6709 173.387 21.3701 173.4Z" fill="black"/>
<path d="M117.92 134.45C117.005 134.512 116.09 134.341 115.259 133.953C114.428 133.565 113.709 132.972 113.17 132.23C111.67 130.08 111.58 126.46 112.87 121.5C113.477 119.271 114.235 117.086 115.14 114.96C115.215 114.795 115.321 114.645 115.454 114.521C115.586 114.396 115.742 114.299 115.912 114.235C116.082 114.171 116.263 114.141 116.444 114.147C116.626 114.153 116.805 114.195 116.97 114.27C117.136 114.343 117.287 114.448 117.412 114.579C117.537 114.71 117.635 114.865 117.701 115.034C117.766 115.203 117.796 115.384 117.791 115.565C117.786 115.747 117.745 115.925 117.67 116.09C115.79 120.3 113.54 127.96 115.42 130.66C115.63 130.94 116.23 131.82 118.34 131.66C118.528 131.638 118.718 131.654 118.899 131.707C119.08 131.761 119.249 131.85 119.394 131.971C119.539 132.092 119.659 132.241 119.744 132.409C119.83 132.578 119.881 132.762 119.893 132.95C119.905 133.139 119.879 133.328 119.816 133.506C119.752 133.684 119.654 133.847 119.525 133.986C119.397 134.124 119.241 134.235 119.068 134.312C118.896 134.388 118.709 134.428 118.52 134.43L117.92 134.45Z" fill="black"/>
<path d="M117.3 149.871C115.614 149.87 113.935 149.662 112.3 149.251C108.464 148.31 104.912 146.454 101.95 143.841C101.814 143.715 101.705 143.564 101.628 143.395C101.552 143.227 101.51 143.045 101.504 142.86C101.499 142.675 101.531 142.491 101.598 142.318C101.665 142.146 101.765 141.988 101.894 141.855C102.022 141.722 102.176 141.616 102.346 141.543C102.516 141.47 102.699 141.432 102.884 141.43C103.069 141.429 103.252 141.464 103.423 141.535C103.595 141.605 103.75 141.709 103.88 141.841C106.535 144.121 109.691 145.741 113.09 146.571C120.38 148.301 127.45 145.691 134.09 138.831C134.351 138.596 134.691 138.469 135.042 138.475C135.393 138.481 135.729 138.619 135.982 138.862C136.235 139.105 136.387 139.435 136.407 139.785C136.427 140.135 136.314 140.48 136.09 140.751C131.81 145.141 125.37 149.871 117.3 149.871Z" fill="black"/>
<path d="M104.75 117.869C105.517 117.867 106.266 117.638 106.903 117.211C107.54 116.783 108.035 116.176 108.328 115.467C108.62 114.758 108.695 113.978 108.544 113.226C108.393 112.474 108.023 111.784 107.48 111.242C106.937 110.701 106.246 110.332 105.493 110.183C104.741 110.034 103.961 110.112 103.253 110.406C102.545 110.7 101.939 111.197 101.513 111.835C101.087 112.473 100.86 113.222 100.86 113.989C100.863 115.019 101.274 116.006 102.003 116.734C102.732 117.461 103.72 117.869 104.75 117.869Z" fill="black"/>
<path d="M130.01 115.24C130.777 115.238 131.526 115.009 132.163 114.582C132.8 114.154 133.295 113.547 133.588 112.838C133.88 112.129 133.955 111.349 133.804 110.597C133.653 109.845 133.283 109.155 132.74 108.613C132.197 108.072 131.506 107.703 130.753 107.554C130.001 107.405 129.221 107.483 128.513 107.777C127.805 108.071 127.199 108.568 126.773 109.206C126.347 109.844 126.12 110.593 126.12 111.36C126.123 112.39 126.534 113.377 127.263 114.105C127.992 114.832 128.98 115.24 130.01 115.24Z" fill="black"/>
<path d="M34.9901 244.09C34.7346 244.093 34.484 244.02 34.2701 243.88C33.956 243.687 33.7311 243.378 33.6448 243.02C33.5586 242.662 33.618 242.284 33.8101 241.97L37.8101 235.48C38.0126 235.185 38.3202 234.979 38.6697 234.904C39.0193 234.829 39.3843 234.891 39.6899 235.076C39.9956 235.262 40.2187 235.557 40.3136 235.902C40.4084 236.246 40.3678 236.614 40.2001 236.93L36.2001 243.42C36.0708 243.624 35.8923 243.793 35.6808 243.91C35.4693 244.027 35.2318 244.089 34.9901 244.09Z" fill="black"/>
<path d="M62.4902 241.69C62.4902 241.69 69.4902 208.79 112.49 208.79C112.49 208.79 125.87 224.88 148.75 201.72C148.75 201.72 218.5 193.5 212.194 257.779L63.3738 260.499L62.4902 241.69Z" fill="black"/>
</g>
</g>
</svg>
