<svg width="31" height="31" viewBox="0 0 31 31" fill="none" xmlns="http://www.w3.org/2000/svg">
<rect x="0.399614" y="0.399614" width="29.5714" height="29.5714" rx="3.59652" stroke="black" stroke-width="0.799227"/>
<path d="M13.3693 21.1853L12.5381 18.4679H8.38212L7.55093 21.1853H4.94545L8.97355 9.72438H11.9307L15.9748 21.1853H13.3693ZM11.1315 13.7845C11.0782 13.6033 11.0089 13.3742 10.9237 13.0971C10.8384 12.8201 10.7532 12.5377 10.6679 12.2499C10.5827 11.9622 10.5134 11.7118 10.4601 11.4987C10.4068 11.7118 10.3322 11.9782 10.2363 12.2979C10.1511 12.6069 10.0658 12.9053 9.98058 13.193C9.90598 13.4701 9.84737 13.6672 9.80475 13.7845L8.98954 16.4379H11.9627L11.1315 13.7845ZM20.825 12.2979C21.6349 12.2979 22.3275 12.4524 22.903 12.7614C23.4891 13.0705 23.942 13.518 24.2616 14.1041C24.5813 14.6902 24.7412 15.4096 24.7412 16.2621V17.4129H19.1146C19.1359 18.0843 19.3331 18.6118 19.7061 18.9954C20.0897 19.379 20.6172 19.5709 21.2885 19.5709C21.8533 19.5709 22.3648 19.5176 22.823 19.411C23.2813 19.2938 23.7555 19.118 24.2457 18.8835V20.7218C23.8194 20.9349 23.3665 21.0894 22.887 21.1853C22.4181 21.2919 21.848 21.3451 21.1766 21.3451C20.3028 21.3451 19.5302 21.1853 18.8589 20.8656C18.1875 20.5353 17.66 20.0397 17.2764 19.379C16.8928 18.7184 16.701 17.8872 16.701 16.8855C16.701 15.8624 16.8715 15.0153 17.2125 14.3439C17.5641 13.6619 18.049 13.1504 18.6671 12.8094C19.2851 12.4684 20.0044 12.2979 20.825 12.2979ZM20.841 13.9923C20.3827 13.9923 19.9991 14.1414 19.6901 14.4398C19.3917 14.7382 19.2159 15.2018 19.1626 15.8305H22.5033C22.5033 15.4788 22.4394 15.1645 22.3115 14.8874C22.1943 14.6103 22.0132 14.3919 21.7681 14.232C21.523 14.0722 21.2139 13.9923 20.841 13.9923Z" fill="black"/>
</svg>
