<svg width="31" height="31" viewBox="0 0 31 31" fill="none" xmlns="http://www.w3.org/2000/svg">
<rect x="0.399614" y="0.399614" width="29.5714" height="29.5714" rx="3.59652" stroke="black" stroke-width="0.799227"/>
<path d="M15.6562 21.1853L14.825 18.4679H10.669L9.83778 21.1853H7.2323L11.2604 9.72438H14.2175L18.2616 21.1853H15.6562ZM13.4183 13.7845C13.365 13.6033 13.2958 13.3742 13.2105 13.0971C13.1253 12.8201 13.04 12.5377 12.9548 12.2499C12.8695 11.9622 12.8002 11.7118 12.747 11.4987C12.6937 11.7118 12.6191 11.9782 12.5232 12.2979C12.4379 12.6069 12.3527 12.9053 12.2674 13.193C12.1928 13.4701 12.1342 13.6672 12.0916 13.7845L11.2764 16.4379H14.2495L13.4183 13.7845ZM21.897 12.4577V21.1853H19.5153V12.4577H21.897ZM20.7141 9.03705C21.0658 9.03705 21.3695 9.1223 21.6253 9.2928C21.881 9.45265 22.0089 9.75635 22.0089 10.2039C22.0089 10.6408 21.881 10.9445 21.6253 11.115C21.3695 11.2855 21.0658 11.3708 20.7141 11.3708C20.3518 11.3708 20.0428 11.2855 19.787 11.115C19.5419 10.9445 19.4194 10.6408 19.4194 10.2039C19.4194 9.75635 19.5419 9.45265 19.787 9.2928C20.0428 9.1223 20.3518 9.03705 20.7141 9.03705Z" fill="black"/>
</svg>
