<svg width="31" height="31" viewBox="0 0 31 31" fill="none" xmlns="http://www.w3.org/2000/svg">
<rect x="0.399614" y="0.399614" width="29.5714" height="29.5714" rx="3.59652" stroke="black" stroke-width="0.799227"/>
<g clip-path="url(#clip0_279_36533)">
<path d="M3.19727 15.9966C3.22009 15.9866 3.21424 15.9657 3.21673 15.9478C3.24618 15.732 3.3043 15.5256 3.42485 15.3397C3.56354 15.1256 3.7613 14.9841 4.0003 14.8935C4.22012 14.8103 4.44962 14.7699 4.68344 14.7605C5.28076 14.7364 5.87864 14.7556 6.47614 14.7501C6.49216 14.75 6.50808 14.7495 6.5241 14.7501C6.5499 14.7509 6.56284 14.7395 6.56246 14.7139C6.55949 14.5094 6.56889 14.3049 6.55728 14.1004C6.55181 14.005 6.54261 13.9106 6.51336 13.819C6.45159 13.6256 6.32288 13.4897 6.1375 13.4038C5.9873 13.3341 5.82743 13.2986 5.66304 13.2784C5.45972 13.2534 5.25553 13.2503 5.05106 13.2508C4.70426 13.2518 4.35746 13.2511 4.01056 13.251C3.97066 13.251 3.93096 13.2511 3.89173 13.2403C3.77396 13.2081 3.69876 13.1171 3.69608 12.9976C3.69416 12.9148 3.69483 12.832 3.6956 12.7492C3.69694 12.5959 3.78422 12.49 3.93911 12.4642C4.04595 12.4464 4.15423 12.4352 4.26232 12.4271C4.59195 12.4021 4.92206 12.3838 5.25275 12.3898C5.59495 12.396 5.93571 12.4205 6.26764 12.5106C6.56246 12.5906 6.83541 12.7127 7.05801 12.9239C7.2552 13.111 7.37288 13.342 7.43646 13.6012C7.47924 13.7753 7.49238 13.9529 7.49266 14.1308C7.4942 15.2194 7.49353 16.3082 7.49334 17.3968C7.49334 17.5232 7.46341 17.6394 7.35926 17.7246C7.28925 17.7819 7.20494 17.8124 7.11767 17.8342C6.94225 17.8782 6.76281 17.898 6.58337 17.9156C6.264 17.9469 5.94357 17.9623 5.62295 17.9734C5.4554 17.9791 5.28747 17.9852 5.12001 17.9815C4.84543 17.9754 4.57123 17.9619 4.30221 17.899C4.05477 17.8411 3.82479 17.7494 3.63345 17.5799C3.42485 17.3951 3.31504 17.158 3.25567 16.8946C3.23812 16.8168 3.22527 16.7383 3.21664 16.659C3.2151 16.6447 3.21462 16.6304 3.19755 16.6246C3.19727 16.4153 3.19727 16.2059 3.19727 15.9966ZM5.67647 15.603C5.61096 15.603 5.54536 15.6018 5.47986 15.6031C5.20691 15.6089 4.9329 15.5842 4.66119 15.6225C4.37136 15.6634 4.20314 15.7759 4.15346 16.0726C4.12459 16.2453 4.13428 16.4179 4.15557 16.5904C4.18636 16.839 4.33031 16.9906 4.57354 17.0597C4.7549 17.1113 4.94124 17.1238 5.12788 17.1289C5.41857 17.1368 5.70898 17.1216 5.9992 17.1044C6.16819 17.0945 6.33622 17.0767 6.50453 17.0596C6.55335 17.0546 6.56352 17.033 6.56332 16.9898C6.56208 16.5478 6.56198 16.1057 6.56352 15.6637C6.56371 15.6169 6.55009 15.6016 6.50108 15.602C6.22631 15.604 5.95144 15.603 5.67647 15.603Z" fill="black"/>
<path d="M27.1741 15.3873C27.1517 15.3945 27.1511 15.4159 27.1446 15.4325C27.1116 15.5167 27.0502 15.5723 26.9653 15.6037C26.8974 15.6287 26.8266 15.6402 26.754 15.6402C26.0603 15.6403 25.3666 15.64 24.6729 15.6411C24.6278 15.6412 24.6114 15.6288 24.6117 15.583C24.6135 15.3315 24.6137 15.0799 24.6116 14.8285C24.6112 14.7803 24.6278 14.7676 24.6752 14.7678C25.1707 14.7692 25.6662 14.7687 26.1617 14.7687C26.2351 14.7687 26.2369 14.7685 26.234 14.6959C26.2225 14.4121 26.2128 14.1279 26.1379 13.8511C26.0866 13.6616 25.9975 13.496 25.8174 13.3911C25.7066 13.3265 25.5838 13.298 25.4586 13.2805C25.2287 13.2483 24.9975 13.2441 24.7656 13.2571C24.6075 13.2659 24.4505 13.2782 24.2968 13.3197C24.0443 13.3877 23.8788 13.5438 23.793 13.7845C23.7353 13.9465 23.7095 14.1145 23.693 14.2841C23.6533 14.6922 23.6603 15.1015 23.6665 15.5103C23.6709 15.7971 23.6825 16.0846 23.7413 16.3673C23.772 16.5148 23.8133 16.6595 23.9027 16.7853C24.032 16.967 24.2213 17.0483 24.4368 17.0832C24.6041 17.1104 24.773 17.1203 24.9424 17.1205C25.4443 17.1212 25.9462 17.1203 26.4481 17.1216C26.6029 17.1219 26.7288 17.2441 26.7329 17.3949C26.7352 17.4807 26.7333 17.5667 26.7337 17.6526C26.7339 17.6813 26.7278 17.7085 26.7171 17.7348C26.6756 17.8382 26.5972 17.9012 26.4863 17.9167C26.3156 17.9406 26.1433 17.9482 25.9711 17.9575C25.6581 17.9744 25.3451 17.9697 25.0322 17.977C24.6758 17.9853 24.3239 17.9602 23.9783 17.8722C23.7255 17.8078 23.4953 17.6984 23.3041 17.5214C23.1348 17.3648 23.0216 17.1721 22.9424 16.9593C22.8539 16.7215 22.8094 16.4744 22.781 16.224C22.7277 15.7543 22.7262 15.2827 22.7364 14.8114C22.745 14.4183 22.7651 14.0252 22.8582 13.6399C22.9131 13.413 22.9968 13.1979 23.135 13.0061C23.2953 12.7837 23.5153 12.6399 23.775 12.55C24.0301 12.4618 24.294 12.4207 24.5634 12.4054C24.726 12.3961 24.8886 12.3849 25.0515 12.3892C25.3664 12.3972 25.6806 12.4148 25.9856 12.501C26.237 12.572 26.4631 12.688 26.6428 12.8781C26.8146 13.0598 26.9194 13.2778 26.9918 13.5122C27.0738 13.778 27.1146 14.0509 27.1371 14.327C27.1451 14.4251 27.1551 14.5228 27.156 14.6212C27.1562 14.6379 27.1534 14.6567 27.1741 14.6658C27.1741 14.9062 27.1741 15.1467 27.1741 15.3873Z" fill="black"/>
<path d="M18.3712 15.1709C18.3712 15.9598 18.3712 16.7486 18.3712 17.5375C18.3712 17.7519 18.2674 17.8638 18.0488 17.8891C17.6999 17.9296 17.3503 17.9585 16.9987 17.9676C16.8709 17.9709 16.7432 17.972 16.6155 17.9746C16.4478 17.9781 16.28 17.9853 16.1124 17.9817C15.7661 17.9741 15.4189 17.9708 15.0793 17.8902C14.8027 17.8245 14.5505 17.7133 14.3503 17.5083C14.1891 17.343 14.087 17.1445 14.0176 16.9292C13.9336 16.6686 13.8978 16.3999 13.88 16.1279C13.8615 15.844 13.8635 15.5599 13.8634 15.2758C13.8633 14.44 13.8632 13.6044 13.8634 12.7686C13.8634 12.6144 13.9485 12.5007 14.0872 12.4693C14.1104 12.464 14.1347 12.4625 14.1585 12.4624C14.2704 12.4617 14.3825 12.4664 14.4941 12.4608C14.6594 12.4528 14.7986 12.5712 14.7949 12.7566C14.7901 13.0049 14.7938 13.2534 14.7938 13.5018C14.7938 14.2328 14.791 14.9639 14.7953 15.6949C14.7969 15.9551 14.8017 16.2164 14.8601 16.4728C14.8778 16.5508 14.9009 16.6269 14.9319 16.7008C15.0342 16.9454 15.2329 17.0578 15.4897 17.0932C15.6165 17.1108 15.7442 17.1188 15.8716 17.1196C16.3718 17.1223 16.8722 17.1207 17.3725 17.1207C17.4402 17.1207 17.4404 17.1205 17.4404 17.0518C17.4404 15.6256 17.4404 14.1995 17.4404 12.7732C17.4404 12.6701 17.4661 12.5783 17.5561 12.5137C17.6025 12.4803 17.6543 12.4622 17.7123 12.4622C17.8434 12.4623 17.9745 12.4607 18.1056 12.4627C18.2474 12.4649 18.36 12.5717 18.3697 12.7106C18.3718 12.7401 18.371 12.7699 18.371 12.7997C18.3712 13.59 18.3712 14.3805 18.3712 15.1709Z" fill="black"/>
<path d="M19.6635 15.5379C19.6635 14.8508 19.6623 14.1636 19.664 13.4765C19.6648 13.1921 19.7525 12.9381 19.966 12.7364C20.1058 12.6045 20.2755 12.5222 20.4616 12.4721C20.7241 12.4012 20.9912 12.3825 21.2631 12.3935C21.4625 12.4017 21.6617 12.4113 21.8606 12.4262C21.9638 12.4339 22.0682 12.4398 22.1676 12.4712C22.3038 12.5142 22.3775 12.6157 22.379 12.7563C22.3797 12.8266 22.3797 12.8969 22.379 12.9671C22.3774 13.1369 22.2593 13.2504 22.0846 13.2505C21.8033 13.2506 21.5221 13.2502 21.2408 13.2509C21.1067 13.2513 20.9725 13.2557 20.8416 13.2884C20.7647 13.3076 20.6932 13.3374 20.6433 13.4025C20.6105 13.4453 20.5959 13.494 20.5944 13.5468C20.5935 13.5811 20.5943 13.6155 20.5943 13.6499C20.5943 14.9664 20.5943 16.2829 20.5942 17.5994C20.5942 17.6274 20.5952 17.6559 20.5911 17.6836C20.5683 17.837 20.474 17.9247 20.3049 17.9333C20.1728 17.94 20.0398 17.9437 19.9076 17.9285C19.77 17.9127 19.6677 17.8052 19.6645 17.6697C19.6622 17.5682 19.6637 17.4667 19.6637 17.3652C19.6637 16.7562 19.6637 16.147 19.6637 15.538C19.6636 15.5379 19.6635 15.5379 19.6635 15.5379Z" fill="black"/>
<path d="M8.67681 17.9226C8.60651 17.9226 8.53611 17.9219 8.46581 17.9228C8.35974 17.924 8.27534 17.8843 8.22154 17.7941C8.16515 17.6995 8.17598 17.603 8.23564 17.5152C8.31514 17.3982 8.40117 17.2855 8.4849 17.1714C9.00222 16.466 9.51936 15.7606 10.038 15.0562C10.0606 15.0255 10.0566 15.0084 10.0361 14.9806C9.52243 14.2861 9.00961 13.591 8.4965 12.8962C8.45363 12.8381 8.42237 12.7762 8.42199 12.7025C8.42122 12.5738 8.51454 12.4646 8.64775 12.4545C8.82134 12.4413 8.99589 12.4453 9.16987 12.4526C9.2745 12.4569 9.35142 12.5132 9.41127 12.5947C9.92993 13.3011 10.4489 14.0072 10.9678 14.7133C11.0368 14.8071 11.1047 14.9017 11.1753 14.9943C11.1957 15.0211 11.1968 15.0387 11.1759 15.0668C10.7311 15.6636 10.2875 16.2611 9.844 16.8588C9.6096 17.1747 9.37665 17.4916 9.14206 17.8073C9.08595 17.8828 9.00711 17.9204 8.91178 17.9222C8.83352 17.9237 8.75517 17.9226 8.67681 17.9226Z" fill="black"/>
<path d="M12.5672 17.9284C12.4941 17.9247 12.4029 17.9353 12.3122 17.9217C12.2516 17.9125 12.2043 17.8887 12.1655 17.8374C11.8582 17.4325 11.5488 17.0291 11.238 16.6267C11.2067 16.5863 11.2054 16.5599 11.2367 16.5187C11.4024 16.3007 11.5646 16.0801 11.7282 15.8606C11.7618 15.8155 11.7637 15.816 11.7977 15.8617C12.1964 16.3966 12.595 16.9315 12.9941 17.4661C13.0343 17.5199 13.0675 17.5748 13.0705 17.644C13.0772 17.8024 12.9637 17.9237 12.8006 17.928C12.7287 17.93 12.6567 17.9284 12.5672 17.9284Z" fill="black"/>
<path d="M12.3585 12.4436C12.4305 12.4472 12.52 12.4378 12.6093 12.4496C12.8044 12.4753 12.9037 12.6665 12.8015 12.8319C12.7355 12.9386 12.6585 13.0389 12.5855 13.1413C12.3271 13.5041 12.0683 13.8664 11.8098 14.2289C11.7749 14.2779 11.7754 14.2778 11.74 14.2304C11.5722 14.006 11.4051 13.7811 11.2358 13.5577C11.2113 13.5253 11.2082 13.5033 11.2329 13.4683C11.4439 13.1704 11.6532 12.8713 11.8614 12.5717C11.9292 12.4741 12.0287 12.4475 12.1397 12.444C12.2068 12.442 12.274 12.4436 12.3585 12.4436Z" fill="black"/>
</g>
<defs>
<clipPath id="clip0_279_36533">
<rect width="23.9768" height="5.59459" fill="white" transform="translate(3.19727 12.3881)"/>
</clipPath>
</defs>
</svg>
