<svg width="24" height="25" viewBox="0 0 24 25" fill="none" xmlns="http://www.w3.org/2000/svg">
<g clip-path="url(#clip0_34_88)">
<path d="M10.6594 13.9089C10.6594 13.6902 10.6594 13.5615 10.6594 13.4328C10.6594 9.4699 10.6594 5.51982 10.6594 1.55688C10.6594 1.33814 10.6725 1.10654 10.7375 0.887807C10.9328 0.270205 11.5445 -0.0900622 12.2213 0.0128714C12.82 0.102938 13.2885 0.617606 13.3145 1.23521C13.3275 1.36387 13.3145 1.49254 13.3145 1.62121C13.3145 5.57129 13.3145 9.52136 13.3145 13.4714C13.3145 13.5872 13.3145 13.703 13.3145 13.896C13.4447 13.7802 13.5228 13.7159 13.6009 13.6387C14.9544 12.3134 16.295 10.9753 17.6486 9.65003C18.1952 9.10963 18.9501 9.05816 19.4967 9.52136C20.0564 9.98456 20.1345 10.7952 19.679 11.3613C19.6009 11.4514 19.5228 11.5286 19.4317 11.6186C17.2842 13.7416 15.1236 15.8775 12.9761 18.0005C12.3905 18.5795 11.5835 18.5924 11.0108 18.0263C8.8243 15.8646 6.62473 13.6902 4.43818 11.5286C4.07375 11.1683 3.90456 10.7437 4.02169 10.2419C4.25597 9.23829 5.47939 8.87803 6.24729 9.59856C6.96312 10.2676 7.65293 10.9753 8.34273 11.6572C9.11063 12.3778 9.8525 13.1112 10.6594 13.9089Z" fill="black"/>
<path d="M12 24.9871C9.3449 24.9871 6.6898 25 4.03471 24.9871C2.04338 24.9743 0.40347 23.6361 0.0780899 21.7061C-0.0130163 21.1657 0.013014 20.5996 0.013014 20.0463C-1.16225e-06 19.4416 -1.16031e-06 18.8497 0.0390444 18.245C0.0780899 17.6274 0.598697 17.1513 1.1974 17.087C1.83514 17.0226 2.42082 17.3958 2.60304 17.9876C2.6551 18.1678 2.66811 18.3608 2.66811 18.5538C2.68113 19.3258 2.66811 20.0978 2.66811 20.8698C2.66811 21.809 3.20173 22.3494 4.16486 22.3494C9.38395 22.3494 14.616 22.3494 19.8351 22.3494C20.7852 22.3494 21.3189 21.8219 21.3189 20.8698C21.3189 20.072 21.3189 19.2872 21.3189 18.4894C21.3189 17.666 21.8915 17.0741 22.6724 17.0741C23.4403 17.0741 23.987 17.666 23.987 18.4894C23.987 19.3258 23.987 20.1621 23.987 20.9984C23.974 23.2244 22.2299 24.9614 19.9653 24.9743C17.3102 25 14.6551 24.9871 12 24.9871Z" fill="black"/>
</g>
<defs>
<clipPath id="clip0_34_88">
<rect width="24" height="25" fill="white"/>
</clipPath>
</defs>
</svg>
