<svg width="31" height="31" viewBox="0 0 31 31" fill="none" xmlns="http://www.w3.org/2000/svg">
<rect x="0.399614" y="0.399614" width="29.5714" height="29.5714" rx="3.59652" stroke="black" stroke-width="0.799227"/>
<path fill-rule="evenodd" clip-rule="evenodd" d="M14.1117 7.76212H12.1249C11.0276 7.76212 10.138 8.66574 10.138 9.78041C10.138 10.8951 11.0276 11.7987 12.1249 11.7987H14.1117V7.76212ZM14.1117 6.3938H15.4588H17.4456C19.2869 6.3938 20.7794 7.91003 20.7794 9.78041C20.7794 10.8842 20.2597 11.8646 19.4552 12.4828C20.2597 13.1011 20.7794 14.0816 20.7794 15.1853C20.7794 17.0557 19.2869 18.5719 17.4456 18.5719C16.7011 18.5719 16.0136 18.324 15.4588 17.9051V18.5719V20.5902C15.4588 22.4606 13.9661 23.9768 12.1249 23.9768C10.2836 23.9768 8.79102 22.4606 8.79102 20.5902C8.79102 19.4864 9.3108 18.506 10.1153 17.8877C9.3108 17.2695 8.79102 16.289 8.79102 15.1853C8.79102 14.0816 9.31082 13.1011 10.1153 12.4829C9.31082 11.8646 8.79102 10.8842 8.79102 9.78041C8.79102 7.91003 10.2836 6.3938 12.1249 6.3938H14.1117ZM15.4588 7.76212V11.7987H17.4456C18.543 11.7987 19.4324 10.8951 19.4324 9.78041C19.4324 8.66574 18.543 7.76212 17.4456 7.76212H15.4588ZM12.1249 17.2036H14.1117V15.1905V15.1853V15.1801V13.167H12.1249C11.0276 13.167 10.138 14.0706 10.138 15.1853C10.138 16.2973 11.0233 17.1993 12.117 17.2036L12.1249 17.2036ZM10.138 20.5902C10.138 19.4782 11.0233 18.5762 12.117 18.5719L12.1249 18.5719H14.1117V20.5902C14.1117 21.7048 13.2222 22.6085 12.1249 22.6085C11.0276 22.6085 10.138 21.7048 10.138 20.5902ZM15.4588 15.1813C15.4609 14.0685 16.3496 13.167 17.4456 13.167C18.543 13.167 19.4324 14.0706 19.4324 15.1853C19.4324 16.3 18.543 17.2036 17.4456 17.2036C16.3496 17.2036 15.4609 16.3021 15.4588 15.1893V15.1813Z" fill="black"/>
</svg>
