<svg width="31" height="31" viewBox="0 0 31 31" fill="none" xmlns="http://www.w3.org/2000/svg">
<rect x="0.399614" y="0.399614" width="29.5714" height="29.5714" rx="3.59652" stroke="black" stroke-width="0.799227"/>
<path d="M12.728 21.1853H7.53307V19.8106L8.92373 19.1712V11.7864L7.53307 11.147V9.77234H12.728V11.147L11.3374 11.7864V19.1712L12.728 19.8106V21.1853ZM17.2464 21.3451C16.2767 21.3451 15.4828 20.9668 14.8647 20.2102C14.2573 19.443 13.9536 18.3187 13.9536 16.8375C13.9536 15.3456 14.2626 14.216 14.8807 13.4488C15.4988 12.6815 16.3087 12.2979 17.3104 12.2979C17.726 12.2979 18.0936 12.3565 18.4133 12.4737C18.733 12.5803 19.0047 12.7295 19.2285 12.9213C19.463 13.1131 19.6601 13.3316 19.8199 13.5767H19.8999C19.8679 13.4062 19.8306 13.1611 19.788 12.8414C19.7453 12.511 19.724 12.1753 19.724 11.8343V9.03705H22.1057V21.1853H20.2835L19.8199 20.0504H19.724C19.5748 20.2848 19.383 20.5033 19.1486 20.7058C18.9248 20.8976 18.6584 21.0521 18.3494 21.1693C18.0403 21.2865 17.6727 21.3451 17.2464 21.3451ZM18.0776 19.443C18.7383 19.443 19.2019 19.2512 19.4683 18.8675C19.7347 18.4733 19.8732 17.8872 19.8839 17.1092V16.8535C19.8839 16.001 19.7507 15.3509 19.4843 14.9034C19.2285 14.4558 18.749 14.232 18.0457 14.232C17.5235 14.232 17.1132 14.4611 16.8148 14.9194C16.5165 15.3669 16.3673 16.017 16.3673 16.8695C16.3673 17.722 16.5165 18.3667 16.8148 18.8036C17.1132 19.2299 17.5342 19.443 18.0776 19.443Z" fill="black"/>
</svg>
