<svg width="125" height="125" viewBox="0 0 125 125" fill="none" xmlns="http://www.w3.org/2000/svg">
<circle cx="62.5" cy="62.5" r="62.5" fill="#333333"/>
<path d="M101.837 44.9344V37.4476C101.837 35.0014 99.8351 33 97.389 33H28.0804C25.6342 33 23.6328 35.0014 23.6328 37.4476V45.0827L62.7717 72.2131L101.837 44.9344Z" fill="#E6E6DC"/>
<path d="M101.836 73.7696L101.985 51.0127L80.9326 65.7639L101.836 73.7696Z" fill="#E6E6DC"/>
<path d="M62.7709 78.1431L49.8728 69.1737L23.7061 78.7361V85.8523C23.7061 88.2984 25.7075 90.2999 28.1537 90.2999H97.4622C99.9084 90.2999 101.91 88.2984 101.91 85.8523V78.8843L76.0396 69.0996L62.7709 78.1431Z" fill="#E6E6DC"/>
<path d="M23.7061 51.0127V73.8437L44.9804 65.7639L23.7061 51.0127Z" fill="#E6E6DC"/>
</svg>
