<?xml version="1.0" encoding="utf-8"?>
<!-- Generator: Adobe Illustrator 25.0.1, SVG Export Plug-In . SVG Version: 6.00 Build 0)  -->
<svg version="1.1" id="圖層_1" xmlns="http://www.w3.org/2000/svg" xmlns:xlink="http://www.w3.org/1999/xlink" x="0px" y="0px"
	 viewBox="0 0 390 370" style="enable-background:new 0 0 390 370;" xml:space="preserve">
<style type="text/css">
	.st0{fill:#FFFFFF;stroke:#000000;stroke-miterlimit:10;}
	.st1{clip-path:url(#SVGID_2_);}
	.st2{fill:#EC6D65;fill-opacity:0.5;}
	.st3{fill:none;stroke:#000000;stroke-width:3;stroke-linecap:round;}
</style>
<rect x="-1" y="-1.1" class="st0" width="390.5" height="373"/>
<g>
	<g>
		<defs>
			<rect id="SVGID_1_" x="0.5" y="-17.1" width="389" height="389"/>
		</defs>
		<clipPath id="SVGID_2_">
			<use xlink:href="#SVGID_1_"  style="overflow:visible;"/>
		</clipPath>
		<g class="st1">
			<path class="st2" d="M309.1,153.4l6.5,0.4l11.9,11.1l6,9.6l-1.2,17.1l-4,20.7l-1.2,14.7l3.9,7.2l128.5,151.2l-59.2,21.7
				l-84.7-13.9l-49-132.2l-41-1.8l-2.1-23.9l10.9-4.5l14.3-7.1l14.3-13.2l10.3-17.8l10.9-25.9l12.8-1.4l5.5-3L309.1,153.4z"/>
			<path class="st2" d="M70.8,137.4l1.4-24.8l5.2-36.4l8.2-23.7l17.3-22.1l13.6-8.8L138,10.7l28.2-5.5l20.3,0.3l22.1,2.8l20.9,5.5
				L246,25.9l17.3,19.7l4.5,10.9l9.7,23.4l7.8,27.5l-8.3,2.1c0,0-17.3,0.3-25.2-3.6l-7.9-4c0,0-6.1,8.2-26.4,3l-20.3-5.1
				c0,0-13.7,14-32.5,7.3s-28.2-17.9-28.2-17.9l-4-7.6l-2.4-3.2c0,0-4.5,16.6-6.1,19.6c-1.5,3-10.3,24.6-14,27.7s-11.5,9.4-15.2,9.4
				s0.5,5.8,0.5,5.8L70.8,137.4z"/>
			<path class="st2" d="M45.8,231.9l9.9-18.6l9.1-24l1.3-8.4l5.6,11.3l7,0.9l17.8-1.9l4.5-3.5l11.4,25.2l24.2,23.3l24.3,5l20.6,1.8
				l-2.4,29.5l-42.5,131.1H9l46.8-102.7L61,281l-11.5-21.1L45.8,231.9z"/>
			<path d="M72.7,139.1c-0.5,0-0.9-0.2-1.3-0.5s-0.6-0.7-0.6-1.2c-1.2-13-1-26.2,0.6-39.2c1.3-11.8,4-23.3,8.1-34.4
				C84.4,51,91.2,40.3,99.6,32.2c11.9-11.8,26.7-20.3,42.9-24.5c18.9-5,41.3-5.4,68.6-1.2c14.9,2.3,28.7,9.4,39.2,20.2
				c8.8,8.8,16.4,20.3,22.4,34.2c6.3,14.8,10.6,30.5,12.7,46.4c0,0.3,0,0.5,0,0.8c-0.1,0.3-0.2,0.5-0.3,0.7
				c-0.2,0.2-0.4,0.4-0.6,0.5s-0.5,0.2-0.8,0.2s-0.5,0-0.8-0.1s-0.5-0.2-0.7-0.4c-0.2-0.2-0.4-0.4-0.5-0.6s-0.2-0.5-0.2-0.8
				c-2.1-15.6-6.2-30.9-12.4-45.4c-5.9-13.4-13.1-24.6-21.6-33c-10-10.2-23-16.9-37.1-19.1c-26.8-4.1-48.7-3.8-67,1.1
				c-15.6,4.1-29.8,12.2-41.2,23.6c-8.4,8.6-15,18.9-19.1,30.2c-4,10.8-6.6,22-7.9,33.4c-1.5,12.7-1.7,25.6-0.6,38.4
				c0,0.2,0,0.5,0,0.7c-0.1,0.2-0.2,0.5-0.3,0.7c-0.2,0.2-0.3,0.4-0.6,0.5c-0.2,0.1-0.5,0.2-0.7,0.2v0.1c0,0,0,0-0.1,0.1
				C72.9,139.1,72.8,139.1,72.7,139.1C72.8,139.1,72.8,139.1,72.7,139.1z"/>
			<path d="M83,195.3c-3.9,0.1-7.8-1-11.2-3c-6-3.6-10.2-10.3-12.6-19.9c-1.7-7.4-2.3-15-1.8-22.5c0-1.9,0.5-3.8,1.5-5.4
				c0.9-1.7,2.2-3.1,3.8-4.1c4.4-2.9,11.3-3.7,20.5-2.3c4.2,0.6,8.3,1.6,12.3,2.9c0.5,0.2,0.9,0.5,1.1,1s0.3,1,0.1,1.5
				c-0.2,0.5-0.5,0.9-1,1.1c-0.5,0.2-1,0.3-1.5,0.1c-3.8-1.2-7.8-2.1-11.8-2.8c-8.1-1.2-14.3-0.6-17.8,1.7c-1.1,0.7-2,1.7-2.6,2.9
				s-0.9,2.5-0.9,3.8c-0.5,7.2,0.1,14.3,1.7,21.3c2.1,8.6,5.8,14.5,10.8,17.5c7.7,4.6,18.7,2.6,32.8-5.9c0.2-0.1,0.5-0.2,0.7-0.3
				c0.3,0,0.5,0,0.8,0c0.2,0.1,0.5,0.2,0.7,0.3s0.4,0.3,0.5,0.6c0.1,0.2,0.2,0.5,0.3,0.7c0,0.3,0,0.5,0,0.8
				c-0.1,0.2-0.2,0.5-0.3,0.7c-0.2,0.2-0.3,0.4-0.6,0.5C98.8,192.2,90.2,195.3,83,195.3z"/>
			<path d="M99.4,134.8c-0.5,0-0.9-0.2-1.3-0.6c-0.3-0.3-0.5-0.8-0.6-1.3c0-0.5,0.1-1,0.5-1.3c0.3-0.4,0.8-0.6,1.2-0.7
				c5.2-0.4,11.2-7.4,16.8-19.7c2.9-6.4,5.3-12.9,7.3-19.6c0.1-0.2,0.2-0.5,0.3-0.7c0.2-0.2,0.3-0.4,0.6-0.5
				c0.2-0.1,0.5-0.2,0.7-0.2c0.3,0,0.5,0,0.7,0.1s0.5,0.2,0.7,0.3c0.2,0.2,0.4,0.3,0.5,0.6c0.1,0.2,0.2,0.5,0.2,0.7
				c0,0.3,0,0.5-0.1,0.7c-2,6.9-4.5,13.6-7.5,20.2C113,126.8,106.3,134.2,99.4,134.8L99.4,134.8z"/>
			<path d="M177.2,110c-7,0.1-13.9-0.9-20.5-3s-12.6-5.8-17.4-10.9c-4.7-4.9-7.8-11.1-9.1-17.7c-0.1-0.3-0.1-0.5,0-0.8
				s0.2-0.5,0.3-0.7c0.2-0.2,0.4-0.4,0.6-0.5s0.5-0.2,0.7-0.3c0.3,0,0.5,0,0.8,0.1s0.5,0.2,0.7,0.4c0.2,0.2,0.4,0.4,0.5,0.6
				s0.2,0.5,0.2,0.8c1.2,5.9,4.1,11.4,8.3,15.8c4.4,4.5,9.8,7.8,15.8,9.7c8.1,2.6,17.8,3.4,29,2.2c0.5-0.1,1,0.1,1.4,0.4
				s0.6,0.8,0.7,1.3c0.1,0.5-0.1,1-0.4,1.4c-0.3,0.4-0.8,0.6-1.3,0.7C183.9,109.8,180.5,110,177.2,110z"/>
			<path d="M231.6,108.3c-11.8,0-22-1.7-30.3-5c-6.7-2.6-12.6-6.7-17.4-12.1c-4.5-5.1-7.3-11.4-8-18.2c0-0.3,0-0.5,0.1-0.7
				s0.2-0.5,0.4-0.6c0.2-0.2,0.4-0.3,0.6-0.4c0.2-0.1,0.5-0.2,0.7-0.2h0.1c0.5,0,1,0.2,1.3,0.5c0.4,0.3,0.6,0.8,0.6,1.3
				c0.7,6,3.3,11.6,7.3,16.1c4.3,4.9,9.8,8.6,15.9,10.9c8.3,3.3,18.6,4.9,30.5,4.7c0.5,0,0.9,0.3,1.3,0.6c0.3,0.4,0.5,0.8,0.5,1.3
				s-0.2,0.9-0.5,1.3s-0.8,0.6-1.3,0.6C232.9,108.3,232.3,108.3,231.6,108.3z"/>
			<path d="M263.8,109.9h-0.2c-9.7-0.7-22.7-4.1-30.2-16.5c-2.7-4.4-4.3-9.5-4.7-14.7c0-0.5,0.2-1,0.5-1.4s0.8-0.6,1.3-0.6
				s1,0.2,1.4,0.5s0.6,0.8,0.6,1.3c0.4,4.6,1.8,9,4.3,13c5.3,8.7,14.4,13.6,27.1,14.5c0.3,0,0.5,0.1,0.7,0.2s0.4,0.3,0.6,0.5
				s0.3,0.4,0.4,0.7c0.1,0.2,0.1,0.5,0.1,0.7c0,0.5-0.2,0.9-0.6,1.3C264.8,109.7,264.3,109.9,263.8,109.9z"/>
			<path d="M287.3,170c-6.6-0.2-13-2-18.7-5.2c-0.2-0.1-0.5-0.3-0.6-0.5c-0.2-0.2-0.3-0.4-0.4-0.7c-0.1-0.2-0.1-0.5-0.1-0.8
				s0.1-0.5,0.2-0.8c0.1-0.2,0.3-0.4,0.5-0.6c0.2-0.2,0.4-0.3,0.7-0.4c0.3-0.1,0.5-0.1,0.8,0c0.3,0,0.5,0.1,0.7,0.3
				c8.3,4.4,15.9,5.8,22.3,4.1c2.8-0.7,5.4-2,7.6-3.8s4.1-4,5.5-6.5c3.7-6.8,4.9-14.6,3.6-22.1c-1.4-8.2-5.4-14.8-11.4-18.5
				c-7.6-4.8-13.8-6.1-18.1-4c-5.7,2.8-6.8,10.7-6.8,10.8c-0.1,0.5-0.3,1-0.7,1.3c-0.4,0.3-0.9,0.5-1.4,0.4s-1-0.3-1.3-0.7
				c-0.3-0.4-0.5-0.9-0.4-1.4c0-0.4,1.3-10.1,8.9-13.8c5.6-2.7,13-1.2,21.8,4.2c6.9,4.3,11.6,11.8,13.2,21.1
				c1.5,8.5,0.1,17.2-4.1,24.7c-1.6,3-3.8,5.6-6.5,7.7c-2.7,2.1-5.7,3.6-9,4.5C291.6,169.7,289.5,170,287.3,170z"/>
			<path d="M173.1,244.5c-12.7,0.2-25.2-2.6-36.5-8.3c-8.8-4.6-16.6-11-22.7-18.8c-6.6-8.1-11.4-17.4-14.3-27.4
				c-0.1-0.5,0-1,0.2-1.5c0.3-0.4,0.7-0.8,1.2-0.9c0.5-0.1,1,0,1.5,0.2c0.4,0.3,0.8,0.7,0.9,1.2c2.8,9.5,7.5,18.3,13.7,26
				c5.8,7.3,13.2,13.3,21.5,17.7c11,5.5,23.1,8.2,35.3,7.9c28.6-0.2,53.7-7.1,72.6-20c18.7-12.7,30.5-30.8,34.3-52.2
				c0.1-0.5,0.4-0.9,0.8-1.2s0.9-0.4,1.4-0.3c0.5,0.1,0.9,0.4,1.2,0.8c0.3,0.4,0.4,0.9,0.3,1.4c-3.9,22.4-16.3,41.3-35.9,54.7
				s-45.4,20.5-74.8,20.7L173.1,244.5z"/>
			<path d="M179.9,258.7c-0.5,0-1-0.2-1.3-0.5c-0.4-0.3-0.6-0.8-0.6-1.3l-0.4-13.8c0-0.5,0.2-1,0.5-1.4s0.8-0.6,1.3-0.6
				s1,0.2,1.3,0.5c0.4,0.3,0.6,0.8,0.6,1.3l0.4,13.8c0,0.3,0,0.5-0.1,0.7s-0.2,0.5-0.4,0.6c-0.2,0.2-0.4,0.3-0.6,0.4
				C180.4,258.7,180.2,258.7,179.9,258.7L179.9,258.7z"/>
			<path d="M224.1,253.8c-0.5,0-1-0.2-1.3-0.5c-0.4-0.3-0.6-0.8-0.6-1.3l-0.8-16.3c0-0.5,0.2-1,0.5-1.4s0.8-0.6,1.3-0.6
				s1,0.2,1.4,0.5s0.6,0.8,0.6,1.3l0.8,16.3c0,0.3,0,0.5-0.1,0.7s-0.2,0.5-0.4,0.6c-0.2,0.2-0.4,0.3-0.6,0.4
				C224.7,253.7,224.4,253.8,224.1,253.8L224.1,253.8z"/>
			<path d="M350.9,261.2c-0.5,0-1-0.2-1.3-0.5c-0.5-0.5-13.3-12.4-21.5-24.4c-5.5-7.9-2.3-22.1,0.8-35.8c1.9-8.4,3.7-16.4,3.4-22.3
				c-0.7-14.6-22.8-24.8-23-24.9c-0.5-0.2-0.8-0.6-1-1.1s-0.2-1,0-1.5s0.6-0.8,1.1-1s1-0.2,1.5,0c4.3,2.1,8.4,4.6,12.1,7.5
				c8.2,6.4,12.7,13.6,13.1,20.6c0.3,6.4-1.5,14.6-3.5,23.4c-2.9,12.9-5.9,26.2-1.4,32.8c8,11.5,20.9,23.6,21,23.7
				c0.2,0.2,0.3,0.4,0.5,0.6c0.1,0.2,0.2,0.5,0.2,0.7c0,0.3,0,0.5-0.1,0.8c-0.1,0.2-0.2,0.5-0.4,0.6c-0.2,0.2-0.4,0.3-0.6,0.4
				C351.4,261.1,351.2,261.2,350.9,261.2z"/>
			<path d="M334.5,271.8c-0.5,0-1-0.2-1.4-0.5c-5.3-5.3-10.1-11.2-14.1-17.6c-8.7-13.6-11.3-25.9-7.6-35.5c3.4-8.8,3.4-18.6,0-27.4
				c-1.5-4.3-3.6-8.3-6.2-11.9c-0.3-0.4-0.4-0.9-0.3-1.4s0.3-0.9,0.7-1.2c0.4-0.3,0.9-0.4,1.3-0.4c0.5,0,0.9,0.3,1.3,0.6
				c2.9,3.9,5.2,8.3,6.8,12.9c3.7,9.7,3.7,20.5,0,30.2c-8,20.6,20.5,48.6,20.7,48.9c0.2,0.2,0.3,0.4,0.4,0.6s0.2,0.5,0.2,0.8
				s-0.1,0.5-0.2,0.8c-0.1,0.2-0.2,0.5-0.4,0.6C335.4,271.6,334.9,271.7,334.5,271.8z"/>
			<path d="M316.5,271.3c-0.2,0-0.5,0-0.7-0.1c-0.8-0.3-19.8-7.9-25.2-20.7c-1-2.2-1.5-4.6-1.5-7s0.5-4.8,1.5-7
				c7.3-17.4-3.2-46.8-3.3-47.1c-0.2-0.5-0.1-1,0.1-1.5s0.6-0.8,1.1-1s1-0.1,1.5,0.1c0.5,0.2,0.8,0.6,1,1.1
				c0.4,1.3,11.1,31.2,3.2,49.9c-0.8,1.7-1.2,3.6-1.2,5.5s0.4,3.8,1.2,5.5c4.8,11.4,22.9,18.6,23.1,18.6c0.4,0.2,0.8,0.5,1,0.9
				s0.3,0.8,0.2,1.3c-0.1,0.4-0.3,0.8-0.7,1.1C317.4,271.1,317,271.2,316.5,271.3L316.5,271.3z"/>
			<path d="M354.1,318.7c-0.3,0-0.6-0.1-0.8-0.2c-0.3-0.1-0.5-0.3-0.7-0.5L333,293.4c-0.2-0.2-0.3-0.4-0.4-0.7s-0.1-0.5-0.1-0.7
				c0-0.3,0.1-0.5,0.2-0.7s0.3-0.4,0.5-0.6c0.4-0.3,0.9-0.5,1.4-0.4s1,0.3,1.3,0.7l19.7,24.5c0.2,0.2,0.3,0.4,0.3,0.7
				c0.1,0.2,0.1,0.5,0.1,0.7c0,0.3-0.1,0.5-0.2,0.7s-0.3,0.4-0.5,0.6C355,318.5,354.6,318.7,354.1,318.7z"/>
			<path d="M105.9,295.4c-0.3,0-0.6-0.1-0.8-0.2c-0.2-0.1-0.4-0.3-0.6-0.4c-0.2-0.2-0.3-0.4-0.4-0.6s-0.1-0.5-0.1-0.7
				c0-0.3,0.1-0.5,0.2-0.7s12.4-27.3,3.1-40.1c-3.2-4.2-5.1-9.2-5.6-14.4s0.4-10.5,2.6-15.2c0.2-0.4,0.7-0.8,1.1-0.9
				c0.5-0.1,1-0.1,1.5,0.1c0.4,0.2,0.8,0.6,0.9,1.1s0.1,1-0.1,1.5c-1.9,4.1-2.7,8.7-2.2,13.2s2.2,8.8,5,12.5
				c10.8,14.6-2.1,42.7-2.7,43.9c-0.2,0.3-0.4,0.6-0.8,0.8C106.7,295.3,106.3,295.4,105.9,295.4z"/>
			<path d="M79.4,298.3c-0.2,0-0.4,0-0.5-0.1c-0.2-0.1-0.5-0.2-0.7-0.3c-0.2-0.2-0.4-0.4-0.5-0.6s-0.2-0.5-0.2-0.7
				c0-0.3,0-0.5,0.1-0.7c1.2-4.2,1.9-8.5,2.1-12.8c0.3-6.5-0.3-15.7-5.4-22.6c-4.7-6.3-5.5-14.7-2.4-24c1.5-4.3,3.5-8.4,6.1-12.1
				c0.3-0.4,0.8-0.7,1.3-0.8s1,0,1.4,0.3s0.7,0.8,0.8,1.3c0.1,0.5,0,1-0.3,1.4c-0.2,0.2-13.3,18.6-3.7,31.6
				c4.6,6.2,6.8,14.9,6.2,25.2c-0.2,4.6-1,9.2-2.2,13.7c-0.1,0.4-0.4,0.7-0.7,1C80.2,298.1,79.8,298.3,79.4,298.3z"/>
			<path d="M57.3,300.7c-0.3,0-0.7-0.1-0.9-0.2s-0.4-0.3-0.6-0.5c-0.2-0.2-0.3-0.4-0.3-0.7c-0.1-0.2-0.1-0.5-0.1-0.7
				s0.1-0.5,0.2-0.7c1.6-3.3,2.7-6.8,3.1-10.4c0.6-3.8,0.4-7.6-0.6-11.3c-1-3.7-2.8-7.1-5.2-10c-3.9-4.9-6.7-10.7-8-16.9
				s-1.2-12.6,0.3-18.7c0.1-0.5,0.5-0.9,0.9-1.2c0.4-0.2,1-0.3,1.5-0.2s0.9,0.5,1.2,0.9c0.2,0.4,0.3,1,0.2,1.5
				c0,0.2-4.8,17.2,7,32.1c2.7,3.4,4.7,7.3,5.8,11.5s1.4,8.6,0.8,12.8c-0.5,4.1-1.7,8-3.6,11.7c-0.2,0.3-0.4,0.5-0.7,0.7
				C58,300.6,57.6,300.7,57.3,300.7z"/>
			<path d="M52.4,217.9c-0.3,0-0.6-0.1-0.8-0.2c-0.3-0.1-0.5-0.3-0.7-0.5s-0.3-0.4-0.3-0.7c-0.1-0.2-0.1-0.5-0.1-0.7
				c0-0.3,0.1-0.5,0.2-0.7c0.1-0.2,0.3-0.4,0.5-0.6c2.3-2.2,4.2-4.7,5.5-7.5c2.6-4.9,5.5-13.3,5.5-26c0-0.5,0.2-1,0.6-1.4
				c0.4-0.4,0.8-0.6,1.4-0.6c0.5,0,1,0.2,1.4,0.6c0.4,0.4,0.6,0.8,0.6,1.4c0,26.3-12.1,36.2-12.6,36.6
				C53.2,217.8,52.8,217.9,52.4,217.9z"/>
			<path d="M185.9,164.1c-1.3,0.1-2.5-0.2-3.7-0.7c-1.1-0.5-2.1-1.4-2.9-2.4c-2.1-3-2.2-8-0.4-14.8c0.8-3.1,1.9-6.1,3.1-9
				c0.1-0.2,0.3-0.4,0.4-0.6c0.2-0.2,0.4-0.3,0.6-0.4c0.2-0.1,0.5-0.1,0.7-0.1c0.3,0,0.5,0.1,0.7,0.2c0.2,0.1,0.4,0.2,0.6,0.4
				c0.2,0.2,0.3,0.4,0.4,0.6c0.1,0.2,0.1,0.5,0.1,0.7c0,0.3-0.1,0.5-0.2,0.7c-2.6,5.8-5.7,16.4-3.1,20.1c0.3,0.4,1.1,1.6,4,1.4
				c0.3,0,0.5,0,0.8,0.1s0.5,0.2,0.7,0.4s0.4,0.4,0.5,0.6c0.1,0.2,0.2,0.5,0.2,0.7c0,0.3,0,0.5-0.1,0.8c-0.1,0.2-0.2,0.5-0.4,0.7
				s-0.4,0.3-0.6,0.5c-0.2,0.1-0.5,0.2-0.8,0.2L185.9,164.1z"/>
			<path d="M185,185.4c-2.3,0-4.7-0.3-6.9-0.9c-5.3-1.3-10.2-3.9-14.3-7.5c-0.2-0.2-0.3-0.4-0.4-0.6c-0.1-0.2-0.2-0.5-0.2-0.7
				c0-0.3,0-0.5,0.1-0.7s0.2-0.5,0.4-0.6c0.2-0.2,0.4-0.3,0.6-0.4c0.2-0.1,0.5-0.2,0.7-0.2c0.3,0,0.5,0,0.7,0.1s0.5,0.2,0.6,0.4
				c3.7,3.2,8,5.4,12.7,6.5c10.1,2.4,19.9-1.2,29-10.7c0.4-0.3,0.8-0.5,1.3-0.5s0.9,0.2,1.3,0.5c0.4,0.3,0.6,0.8,0.6,1.3
				s-0.1,1-0.4,1.3C205.1,178.9,196.2,185.4,185,185.4z"/>
			<path d="M167.7,141.2c1.1,0,2.1-0.3,3-0.9c0.9-0.6,1.6-1.4,2-2.4s0.5-2.1,0.3-3.1s-0.7-2-1.5-2.7s-1.7-1.3-2.7-1.5
				s-2.1-0.1-3.1,0.3c-1,0.4-1.8,1.1-2.4,2c-0.6,0.9-0.9,1.9-0.9,3c0,1.4,0.6,2.8,1.6,3.8C164.9,140.6,166.2,141.2,167.7,141.2z"/>
			<path d="M202.6,137.5c1.1,0,2.1-0.3,3-0.9c0.9-0.6,1.6-1.4,2-2.4s0.5-2.1,0.3-3.1s-0.7-2-1.5-2.7s-1.7-1.3-2.7-1.5
				s-2.1-0.1-3.1,0.3s-1.8,1.1-2.4,2c-0.6,0.9-0.9,1.9-0.9,3c0,1.4,0.6,2.8,1.6,3.8C199.8,137,201.2,137.5,202.6,137.5z"/>
			<path d="M71.2,315.7c-0.4,0-0.7-0.1-1-0.3c-0.4-0.3-0.7-0.7-0.9-1.2c-0.1-0.5,0-1,0.2-1.5l5.5-9c0.3-0.4,0.7-0.7,1.2-0.8
				c0.5-0.1,1,0,1.4,0.2c0.4,0.3,0.7,0.7,0.9,1.1c0.1,0.5,0.1,1-0.2,1.4l-5.5,9c-0.2,0.3-0.4,0.5-0.7,0.7
				C71.9,315.6,71.5,315.7,71.2,315.7z"/>
			<path d="M109.2,312.4c0,0,9.7-45.5,69.1-45.5c0,0,18.5,22.2,50.1-9.8c0,0,80.7-13.7,107.2,81.7l9.1,52.6L110.3,386H80.8
				L109.2,312.4z"/>
			<path class="st3" d="M379.2,292.3l42.9,47.7"/>
			<path class="st3" d="M37.3,343L18,384.1"/>
		</g>
	</g>
</g>
</svg>
