<svg width="125" height="125" viewBox="0 0 125 125" fill="none" xmlns="http://www.w3.org/2000/svg">
<circle cx="62.5" cy="62.5" r="62.5" fill="#333333"/>
<path d="M88.2181 90.7601C83.3371 86.7269 76.8001 81.0632 73.2265 77.8881C71.7448 76.6009 69.653 76.3435 67.9098 77.1158C65.9922 78.0597 63.2031 78.9179 60.5011 78.403C57.1019 77.8023 54.1385 75.8286 52.3081 72.9109C47.0785 64.5013 48.1244 59.2667 50.5649 55.5767C52.0466 53.3456 54.5743 51.9725 56.5789 51.2002C58.4093 50.5137 59.6295 48.7975 59.7167 46.8238C59.891 42.104 60.2397 33.5227 60.5883 27.2584C60.7626 25.0272 59.2809 23.0535 57.1019 22.367C55.1844 21.8521 53.0925 21.8521 51.0007 22.5386C45.161 24.5982 41.2388 27.0867 38.1882 37.1269C29.7336 64.7587 37.8395 86.0404 65.5564 99.7705C75.144 104.49 79.5892 103.375 85.1675 100.629C87.085 99.6846 88.5667 98.14 89.5255 96.4237C90.4842 94.6217 89.9613 92.2189 88.2181 90.7601Z" fill="#E6E6DC"/>
</svg>
