<svg width="31" height="31" viewBox="0 0 31 31" fill="none" xmlns="http://www.w3.org/2000/svg">
<rect x="0.399614" y="0.399614" width="29.5714" height="29.5714" rx="3.59652" stroke="black" stroke-width="0.799227"/>
<path d="M11.6207 9.77234C13.0913 9.77234 14.1623 10.092 14.8336 10.7314C15.5156 11.3601 15.8566 12.2286 15.8566 13.3369C15.8566 13.8377 15.7821 14.3173 15.6329 14.7755C15.4837 15.2231 15.2333 15.628 14.8816 15.9903C14.5406 16.342 14.0877 16.6191 13.5229 16.8215C12.9581 17.024 12.2601 17.1252 11.4289 17.1252H10.3899V21.1853H7.97627V9.77234H11.6207ZM11.4929 11.7544H10.3899V15.1431H11.1892C11.6474 15.1431 12.0417 15.0845 12.372 14.9673C12.7024 14.8501 12.9581 14.6636 13.1393 14.4079C13.3204 14.1521 13.411 13.8218 13.411 13.4168C13.411 12.852 13.2565 12.4364 12.9475 12.17C12.6384 11.893 12.1536 11.7544 11.4929 11.7544ZM22.6969 12.2979C22.8141 12.2979 22.9527 12.3032 23.1125 12.3139C23.2724 12.3245 23.4002 12.3405 23.4961 12.3618L23.3203 14.5997C23.2457 14.5784 23.1338 14.5624 22.9846 14.5517C22.8461 14.5304 22.7236 14.5197 22.617 14.5197C22.308 14.5197 22.0096 14.5624 21.7219 14.6476C21.4341 14.7222 21.173 14.8448 20.9386 15.0153C20.7148 15.1858 20.5337 15.4149 20.3951 15.7026C20.2673 15.9797 20.2033 16.326 20.2033 16.7416V21.1853H17.8216V12.4577H19.6279L19.9795 13.9283H20.0914C20.2619 13.6299 20.4751 13.3582 20.7308 13.1131C20.9866 12.868 21.2796 12.6709 21.61 12.5217C21.951 12.3725 22.3133 12.2979 22.6969 12.2979Z" fill="black"/>
</svg>
