<svg width="31" height="31" viewBox="0 0 31 31" fill="none" xmlns="http://www.w3.org/2000/svg">
<rect x="0.399614" y="0.399614" width="29.5714" height="29.5714" rx="3.59652" stroke="black" stroke-width="0.799227"/>
<path d="M11.2773 9.77234C12.7479 9.77234 13.8189 10.092 14.4902 10.7314C15.1722 11.3601 15.5132 12.2286 15.5132 13.3369C15.5132 13.8377 15.4386 14.3173 15.2894 14.7755C15.1403 15.2231 14.8898 15.628 14.5382 15.9903C14.1972 16.342 13.7443 16.6191 13.1795 16.8215C12.6147 17.024 11.9167 17.1252 11.0855 17.1252H10.0465V21.1853H7.63285V9.77234H11.2773ZM11.1494 11.7544H10.0465V15.1431H10.8457C11.304 15.1431 11.6983 15.0845 12.0286 14.9673C12.3589 14.8501 12.6147 14.6636 12.7959 14.4079C12.977 14.1521 13.0676 13.8218 13.0676 13.4168C13.0676 12.852 12.9131 12.4364 12.604 12.17C12.295 11.893 11.8101 11.7544 11.1494 11.7544ZM23.5683 18.5958C23.5683 19.1819 23.4298 19.6828 23.1527 20.0984C22.8757 20.5033 22.4601 20.8123 21.9059 21.0255C21.3518 21.2386 20.6645 21.3451 19.8439 21.3451C19.2365 21.3451 18.7143 21.3025 18.2774 21.2173C17.8405 21.1427 17.4036 21.0148 16.9667 20.8336V18.8675C17.4356 19.0807 17.9418 19.2565 18.4852 19.395C19.0287 19.5336 19.5082 19.6028 19.9238 19.6028C20.3927 19.6028 20.7231 19.5336 20.9149 19.395C21.1174 19.2565 21.2186 19.0753 21.2186 18.8516C21.2186 18.7024 21.176 18.5692 21.0907 18.4519C21.0161 18.3347 20.8456 18.2015 20.5792 18.0523C20.3128 17.9031 19.8972 17.7113 19.3324 17.4769C18.7889 17.2424 18.3414 17.0133 17.9897 16.7896C17.6381 16.5551 17.377 16.278 17.2065 15.9584C17.036 15.628 16.9507 15.2177 16.9507 14.7275C16.9507 13.9177 17.2651 13.3102 17.8938 12.9053C18.5225 12.5004 19.3591 12.2979 20.4034 12.2979C20.9469 12.2979 21.4637 12.3512 21.9539 12.4577C22.4441 12.5643 22.9502 12.7401 23.4724 12.9852L22.7531 14.6956C22.4654 14.5677 22.1883 14.4558 21.9219 14.3599C21.6555 14.264 21.3944 14.1894 21.1387 14.1361C20.8936 14.0828 20.6378 14.0562 20.3714 14.0562C20.0197 14.0562 19.7533 14.1041 19.5722 14.2001C19.4017 14.296 19.3164 14.4398 19.3164 14.6316C19.3164 14.7702 19.3591 14.898 19.4443 15.0153C19.5402 15.1218 19.716 15.2391 19.9718 15.3669C20.2382 15.4948 20.6272 15.6653 21.1387 15.8784C21.6395 16.0809 22.0711 16.294 22.4334 16.5178C22.7957 16.7309 23.0728 17.0027 23.2646 17.333C23.4671 17.6527 23.5683 18.0736 23.5683 18.5958Z" fill="black"/>
</svg>
